/* XPM */
static char *_9d0d7965649409186cdb0ae1460a94126Dr4LbQeqbJLCiD[] = {
/* columns rows colors chars-per-pixel */
"50 50 199 2 ",
"   c None",
".  c black",
"X  c #000001",
"o  c #010101",
"O  c #020101",
"+  c #020202",
"@  c #030202",
"#  c #030302",
"$  c gray1",
"%  c #040302",
"&  c #040303",
"*  c #040403",
"=  c #040404",
"-  c #050404",
";  c gray2",
":  c #060504",
">  c #060505",
",  c #060605",
"<  c #070605",
"1  c #060606",
"2  c #070606",
"3  c #070706",
"4  c #070707",
"5  c #080606",
"6  c #080706",
"7  c #090807",
"8  c #0A0807",
"9  c #0C0907",
"0  c gray3",
"q  c #090808",
"w  c #090909",
"e  c #0A0908",
"r  c #0B0908",
"t  c gray4",
"y  c #0B0A0A",
"u  c #0B0B0A",
"i  c #0B0B0B",
"p  c #0D0908",
"a  c #0C0A08",
"s  c #0C0A09",
"d  c #0C0B09",
"f  c #0C0B0A",
"g  c #0D0C0A",
"h  c #0C0C0B",
"j  c #0D0C0B",
"k  c #0E0C0B",
"l  c #0E0D0B",
"z  c #0C0C0C",
"x  c gray5",
"c  c #0E0D0C",
"v  c #0E0E0E",
"b  c #0F0F0E",
"n  c gray6",
"m  c #110505",
"M  c #130404",
"N  c #1A0404",
"B  c #130A0A",
"V  c #170808",
"C  c #120D0B",
"Z  c #140E0B",
"A  c #110E0C",
"S  c #110F0D",
"D  c #100F0E",
"F  c #150D0D",
"G  c #160F0C",
"H  c #150E0E",
"J  c #1D0B0B",
"K  c #10100F",
"L  c #12100E",
"P  c #13100E",
"I  c #13110F",
"U  c #15100C",
"Y  c #19110E",
"T  c #19120F",
"R  c #101010",
"E  c #111010",
"W  c #111111",
"Q  c #121111",
"!  c gray7",
"~  c #131312",
"^  c #131313",
"/  c #161311",
"(  c #151112",
")  c #151312",
"_  c #151413",
"`  c #171513",
"'  c gray8",
"]  c #151515",
"[  c #171414",
"{  c #161515",
"}  c #171615",
"|  c #161616",
" . c #171716",
".. c gray9",
"X. c #1C1310",
"o. c #191613",
"O. c #181614",
"+. c #191715",
"@. c #191717",
"#. c #1B1815",
"$. c #181817",
"%. c #181818",
"&. c #191819",
"*. c #191919",
"=. c #1A1919",
"-. c #1B1919",
";. c gray10",
":. c #1B1A1A",
">. c #1B1B1B",
",. c #1D1A18",
"<. c #1E1B18",
"1. c #1E1B19",
"2. c gray11",
"3. c #1D1D1D",
"4. c #1E1E1E",
"5. c gray12",
"6. c #270202",
"7. c #270505",
"8. c #290202",
"9. c #280707",
"0. c #230808",
"q. c #200D0D",
"w. c #310404",
"e. c #3A0405",
"r. c #201612",
"t. c #241914",
"y. c #291C17",
"u. c #2A1F17",
"i. c #221E1A",
"p. c #231F1C",
"a. c #201E1F",
"s. c #24201C",
"d. c #26211D",
"f. c #26221D",
"g. c #27221E",
"h. c #2F211A",
"j. c #28231E",
"k. c #30231A",
"l. c #31231B",
"z. c #33231C",
"x. c #35241D",
"c. c #35251D",
"v. c #35261D",
"b. c #36261E",
"n. c #202020",
"m. c gray13",
"M. c #222222",
"N. c #232323",
"B. c gray14",
"V. c #252525",
"C. c gray15",
"Z. c #272727",
"A. c #2E2924",
"S. c #282828",
"D. c gray16",
"F. c #2A2A2A",
"G. c gray17",
"H. c #2C2C2C",
"J. c #2D2D2D",
"K. c gray18",
"L. c #2F2F2F",
"P. c #392720",
"I. c #312B26",
"U. c #3B2920",
"Y. c #3F2D23",
"T. c gray19",
"R. c #313131",
"E. c #323232",
"W. c #353535",
"Q. c #373737",
"!. c gray22",
"~. c gray23",
"^. c #3E3E3E",
"/. c #420506",
"(. c #480303",
"). c #4C0404",
"_. c #420808",
"`. c #500303",
"'. c #550202",
"]. c #510606",
"[. c #560707",
"{. c #5D0606",
"}. c #500909",
"|. c #680303",
" X c #6B0606",
".X c #6F0606",
"XX c #620808",
"oX c #620909",
"OX c #7D0203",
"+X c #7C0303",
"@X c #7D0303",
"#X c #7F0202",
"$X c #860101",
"%X c #880000",
"&X c #8A0000",
"*X c #920101",
"=X c #9C0101",
"-X c #9D0101",
";X c #C20101",
/* pixels */
"                                                                                                    ",
"                                                                    v v                             ",
"                                                                    v | 0 |                         ",
"                                                                    v 5.Z.W v                       ",
"                                                                      ;.G.n.v                       ",
"                                                                    v Z.J.Z.5.v                     ",
"                                                                    0 G.J.G.n.| |                   ",
"                                                                    v W.G.Z.n.5.4                   ",
"                  W                                       W W     W 5.R.G.Z.Z.5.4                   ",
"                  v 0                               v 0 v | | v 4 4 !.G.Z.Z.n.n.0                   ",
"                v n.v                           v v 5.J.R.R.J.J.n.| 5.G.G.Z.n.5.0                   ",
"                W G.v                 | 4 4 0 0 ;.G.J.R.R.R.W.R.J.G.W n.Z.Z.5.5.0                   ",
"              ;.;.J.;.0             0 0 0 5.5.5.G.E.R.L.n...;.G.J.R.Z.W Z.n.5.;.0                   ",
"              W n.G.n.| 0 W v v v 0 ;.| v Z.| G.J.R.L.@.8.'.e.9 n.J.Z.v 5.5.5.| ;.                  ",
"              v Z.J.n.5.| 4 | n.5.5.n.5.Z.a.| L.J.G.[ `.=X$X#X].B Z.G.0 | 5.5.v                     ",
"              v Z.J.n.| v Z.R.R.R.Z.| G.R.G.W L.G.| 8.=X;X&X+XoXV Z.Z.W 0 v W 4 W                   ",
"              | n.W.n.^ G.G.;.n.J.J.| G.H.H.v _ d M oX@X$X$X X].;.R.R.R.J.5.W 5.$.4                 ",
"                ..^.;.n.J.q.(.9.;.5.v Z.Z.G.n.$.>.( 0._.[.{./.J J.R.R.E.J.Z.K W Z.W                 ",
"                v !.;.B...|.*X XN f 5.G.J.J.T.J.J.L.Z.;.H H 5.J.R.R.G.2.W j o.j 5.;.v               ",
"                W | 2.W _ 7.).w.| G.J.R.E.R.R.R.E.E.R.E.R.T.J.G.;.K $ <.( #.j j n.v W               ",
"                  0 W v Z.Z.2.Z.R.R.R.L.T.T.J.H.G.Z.Z.N.5.| 0 6 4 s.4 * K 4 ;.n.;.v 0               ",
"                  W 0 >.R.R.R.J.Z.5.@.| _ K _ | 0 ,.9 K 0 4 4 S * 0 8 O 4 ;.T.J.5.Z.W v             ",
"                v | 5.G.L.Z.5.K j S i.d.d.d d.A.8 I.6 j O 4 8 @.O 4 O O 4 Z.E.E.G.Z.5.4             ",
"                W n.4 0 O j A 4 d.f 0 O * O O O f O 8 j ( % O O O O O ;.G.R.R.E.R.G.n.v             ",
"                W ;.W z 4 4 4 4 8 8 8 9 4 d.K 4 j.* O 4 O O O O O O O ^ J.R.T.R.R.Z.Z.| v           ",
"                z n.n.4 $ $ O v j I _ @.S <.W ..;.W O O O O O O O O 5.0 | J.E.R.R.Z.Z.5.4           ",
"                z Z.;.= O O O O b 2.a.B.G.J.R.T.R.H.* O O O O O O 0 G.v = Z.R.R.R.G.Z.n.4           ",
"                W L.B.O $ W d Z.L.R.E.R.R.R.E.R.R.T.n.O O O O O O 4 G.5.0 n.R.R.J.Z.G.n.b ^         ",
"              v >.T.;.O W ^ n.R.G.L.E.E.E.E.E.E.R.R.G.4 O O O O O O Z.J.Z.J.J.R.G.Z.Z.n.W 0         ",
"              4 Z.T.z = n.b B.L.R.E.E.E.E.E.E.E.R.R.T.z O W O O O O 5.J.R.R.J.R.G.Z.G.n.| O         ",
"            v W J.T.d 4 Z.5.Z.L.E.E.E.E.E.E.E.E.R.J.J.^ 0 G.| O O O W J.J.| J.J.G.Z.Z.5.| 4         ",
"            0 Z.T.T.z 4 Z.B.Z.E.E.E.E.E.E.E.E.E.R.J.T.>.0 J.Z.4 O O 4 Z.G.W G.G.Z.Z.Z.5.| 4         ",
"            0 Z.J.R.v 0 Z.R.W.R.R.W.R.W.R.R.R.W.R.W.R.n.4 G.J.W O O O >.J.T.R.G.Z.Z.Z.5.^ O         ",
"            v G.R.R.| 0 n.R.R.R.R.R.R.R.W.R.R.R.R.R.R.n.O Z.R.;.O O O W G.R.J.G.Z.Z.n.>.^ O         ",
"            W G.R.W.J.Z.J.R.R.W.R.W.R.R.R.W.R.W.W.R.R.;.O >.R.5.O O O O 5.T.G.Z.G.Z.5.5.v v v       ",
"          0 W Z.R.R.R.J.J.R.R.R.R.R.W.R.R.R.R.R.R.R.J.v O ;.R.Z.O O O O ;.G.G.Z.Z.n.5.5.0 ^ v       ",
"          v W Z.J.W.R.W.R.R.W.R.R.R.R.R.R.R.R.R.R.R.R.5.O | R.G.O O O O W Z.Z.G.Z.5.5.5.0 ..0       ",
"            v 5.J.R.R.R.R.R.R.R.R.J.J.G.J.J.R.J.J.J.R.5.O 5.R.J.O O O O v Z.Z.G.5.5.5.;.v 5.0       ",
"            0 5.G.R.R.R.R.R.W.J.G.Z.G.R.R.R.R.R.R.R.J.n.z Z.T.J.O O O O v G.Z.n.5.5.5.W | ;.v       ",
"            4 5.n.G.R.R.R.R.G.G.Z.G.J.R.R.W.W.R.W.R.R.J.5.0 G.R.z O O O v Z.Z.5.5.>.5.0 5.5.0       ",
"        8 6 O v n.Z.Z.G.G.G.Z.n.5.Z.G.R.R.R.R.R.R.R.R.R.Z.;.Z.G.W O O O W Z.5.5.5.5.| W n.5.0       ",
"    0 A t.Z K 4 ;.n.Z.Z.Z.G.G.Z.;.W | n.G.J.R.J.R.R.R.J.Z.Z.G.G.n.O O O | 5.5.5.5.>.0 5.B.>.8 0 ^   ",
"  I l.U.h.^ Z.| W 5.n.G.G.J.R.J.Z.Z.;.v 0 v W | ;.;.;.| | W v v Z.v O 4 ..5.5.>.5.W | Z.n.;.T x.U _ ",
"( k.Y.Y.A Z.Z.Z.W | n.n.n.G.J.J.G.Z.Z.Z.n.;.;.| | | | | ;.5.n.Z.Z.n.^ ^ >.5.5...v ^ B.Z.5.$.r.U.b.0 ",
"@.X.x.k.W Z.G.Z.n.v ;.5.5.5.n.Z.Z.G.Z.Z.Z.Z.n.n.n.n.Z.Z.Z.Z.G.Z.n.5.| 4 ;.5.| b | Z.Z.n.5.v y.x.y.j ",
"  W 6 9 | n.Z.Z.G.n.v W 5.5.5.5.;.5.n.5.| n.Z.G.G.Z.G.Z.n.;.| 5.n.5.v O W 5.5.5.5.Z.n.5.;.* T f W   ",
"      v 0 W | 5.n.Z.n.5.| | ;.5.5.5.5.5.| W W W W | W W W ;.5.5.5.>...^ ;.5.5.5.5.;.;.| f 4 f       ",
"            v v 4 0 v | ;.;.5.5.5.5.;.5.5.5.;.5.;.;.;.5.;.5.5.n.5.5.5.5.5.;.( v 0 4 0 W             ",
"                      v 0 0 v 0 0 0 v v v v W W W v W W v v v 0 0 0 0 v 0 0 v W                     ",
"                                                                                                    "
};
