/* XPM */
static char *_228b3ee506f4c8a97b94404e5222334JBii488KcH7tHjrn[] = {
/* columns rows colors chars-per-pixel */
"50 50 202 2 ",
"   c None",
".  c black",
"X  c #000001",
"o  c #010101",
"O  c #020101",
"+  c #020202",
"@  c #030202",
"#  c #030302",
"$  c gray1",
"%  c #040303",
"&  c #040403",
"*  c #050403",
"=  c #040404",
"-  c #050404",
";  c #050504",
":  c gray2",
">  c #060505",
",  c #060605",
"<  c #060606",
"1  c #070606",
"2  c #070706",
"3  c #070707",
"4  c #080706",
"5  c #090807",
"6  c #0B0807",
"7  c gray3",
"8  c #090909",
"9  c #0A0908",
"0  c #0B0908",
"q  c #0A0A09",
"w  c #0B0A09",
"e  c gray4",
"r  c #0B0B0A",
"t  c #0B0B0B",
"y  c #0D0908",
"u  c #0D0909",
"i  c #0C0B09",
"p  c #0E0A08",
"a  c #0C0B0A",
"s  c #0D0B0A",
"d  c #0F0B0A",
"f  c #0D0C0A",
"g  c #0D0C0B",
"h  c #0E0C0B",
"j  c #0E0D0B",
"k  c #0F0D0B",
"l  c #0C0C0C",
"z  c gray5",
"x  c #0F0D0C",
"c  c #0E0D0D",
"v  c #0E0E0E",
"b  c #0F0E0E",
"n  c gray6",
"m  c #120606",
"M  c #140404",
"N  c #140606",
"B  c #150707",
"V  c #1C0303",
"C  c #1C0505",
"Z  c #110808",
"A  c #130808",
"S  c #100C09",
"D  c #100E0C",
"F  c #100E0D",
"G  c #110F0D",
"H  c #100F0E",
"J  c #110F0E",
"K  c #140C0C",
"L  c #150F0C",
"P  c #1A0A0A",
"I  c #1E0E0E",
"U  c #10100F",
"Y  c #12100E",
"T  c #15100D",
"R  c #14110F",
"E  c #19110E",
"W  c #19140F",
"Q  c #101010",
"!  c #111010",
"~  c #111111",
"^  c #121111",
"/  c gray7",
"(  c #131313",
")  c #151111",
"_  c #161310",
"`  c #161311",
"'  c #151313",
"]  c #141413",
"[  c #171412",
"{  c gray8",
"}  c #151414",
"|  c #151515",
" . c #161616",
".. c gray9",
"X. c #1B1210",
"o. c #1B1310",
"O. c #181512",
"+. c #1C1410",
"@. c #1B1515",
"#. c #191614",
"$. c #1A1714",
"%. c #1A1715",
"&. c #191717",
"*. c #1C1915",
"=. c #181818",
"-. c #191919",
";. c #1A191A",
":. c gray10",
">. c #1B1B1B",
",. c #1C1B1B",
"<. c #1E1A1A",
"1. c gray11",
"2. c #1D1D1D",
"3. c #1E1E1E",
"4. c gray12",
"5. c #220404",
"6. c #290505",
"7. c #280707",
"8. c #2F0707",
"9. c #210B0B",
"0. c #360404",
"q. c #3B0303",
"w. c #3B0505",
"e. c #3F0808",
"r. c #231814",
"t. c #241914",
"y. c #261A15",
"u. c #271D15",
"i. c #291C17",
"p. c #201C19",
"a. c #221E1A",
"s. c #231E1B",
"d. c #201E1E",
"f. c #2C1E18",
"g. c #2C1F18",
"h. c #25201C",
"j. c #26221D",
"k. c #2E211A",
"l. c #31231B",
"z. c #33261C",
"x. c #39271F",
"c. c #202020",
"v. c gray13",
"b. c #222222",
"n. c #232323",
"m. c gray14",
"M. c #252525",
"N. c gray15",
"B. c #272727",
"V. c #292420",
"C. c #2A2520",
"Z. c #2B2621",
"A. c #2F2924",
"S. c #2F2A25",
"D. c #282828",
"F. c gray16",
"G. c #2A2A2A",
"H. c gray17",
"J. c #2C2C2C",
"K. c #2D2D2D",
"L. c gray18",
"P. c #2F2F2F",
"I. c #332D27",
"U. c #3A2820",
"Y. c #3B2A21",
"T. c #3D2B21",
"R. c #3D2B22",
"E. c gray19",
"W. c #313131",
"Q. c #323232",
"!. c #343434",
"~. c #353535",
"^. c #373737",
"/. c gray22",
"(. c #440303",
"). c #480606",
"_. c #510808",
"`. c #5D090A",
"'. c #600101",
"]. c #620202",
"[. c #630404",
"{. c #650606",
"}. c #6C0101",
"|. c #6A0606",
" X c #6C0606",
".X c #630809",
"XX c #730102",
"oX c #770101",
"OX c #770404",
"+X c #780303",
"@X c #7F0202",
"#X c #790404",
"$X c #7A0404",
"%X c #402E23",
"&X c #422F24",
"*X c #434343",
"=X c #870101",
"-X c #880000",
";X c #8B0000",
":X c #980101",
">X c #B00101",
",X c #B50101",
/* pixels */
"                                                                    l 8                             ",
"                                                                    8  .l                           ",
"                                                                    l >.c.8                         ",
"                                                                      ( J.N.l                       ",
"                                                                    l >.J.N.>.8                     ",
"                                                                    l c.F.F.c.( (                   ",
"                                                                    8 ^.J.F.c.N.8                   ",
"                                                                     .^.F.F.N.c.l                   ",
"                  8 8                               ( 8 l 8 8 l l 8 J.Q.F.N.N.4.(                   ",
"                8 4.$                             l ( c.J.Q.J.F.>.8 ^.F.F.F.c.4.(                   ",
"                ( N.3                     l l t l >.J.Q.Q.^.Q.Q.F.N.( c.N.N.4.c.n                   ",
"              l N.F.8               ( t 8 l (  .N.Q.Q.Q.J.J.J.Q.J.Q.>.( F.N.4.c.t                   ",
"              l F.N.4.8           8 l l 8 c.4.c.J.Q.Q.F.[ M Z >.F.Q.N.8 c.4.4.c.t                   ",
"              8 Q.N.4.4.( 3 8 l l  .c.>.>.1.1.J.J.Q.c.9.'.oX'.8.>.F.N.3 4.4.4.( n                   ",
"              8 ^.F.4.4.l ( c.J.F.4.N.c.J.>.c.Q.J.N.Z XX,X;X@X`.M N.c.3 ( >.4.3                     ",
"              3 Q.F.c.l 4.Q.Q.Q.Q.F. .J.Q.n.>.J.n.s '.:X>X;XOX.XK J.F.N. .3 3 $ 3 >.                ",
"              l J.Q.>.=.J.<.I &.F.F.l B.F.B.( ( l m _. X$XOX.Xw.c.Q.Q.Q.W.c.] >.h.t                 ",
"              l c.*Xl D.4.(.}.q.( (  .B.B.B.N.c.n.>.M 7.(.).7.[ Q.Q.Q.Q.Q.c.8 3 c. .l               ",
"                t /.l 4.P +X=X|.V 4.F.J.J.Q.Q.Q.Q.Q.J.N...=.F.Q.J.F.4.[ 8 h *.h .. .n               ",
"                l >.4.l ' 5.0.V >.J.Q.Q.Q.Q.Q.Q.Q.Q.Q.Q.Q.Q.H.N.( s $ A.] O.s l 4.t (               ",
"                  l l l J.B.n.H.Q.Q.J.J.P.J.F.F.N.c.2.>. .l 8 F 3 ] s 3 s 8 4.N...( 3               ",
"                  l 8 c.Q.Q.W.L.N. .( F s s 4 F 3 O.Y R h 5 3 s $ h % $ $ >.Q.J.N.N. .l             ",
"                7 n.4.H.J.h.( 5 l I.j.j.Z.R Y p.& h.4 3 $ 4 s O.$ $ $ $ 3 F.Q.Q.J.F.4.3             ",
"                >...3 7 & Y 4 & j.R $ $ $ $ $ $ 5 $ F h R $ $ $ $ $ $  .F.Q.Q.Q.Q.B.n.l l           ",
"                (  .( l 3 $ $ 3 3 % h s 3 p.*.5 I.& $ $ $ $ $ $ $ $ $ 3 F.Q.J.Q.Q.F.N. .8           ",
"                8 F.4.3 3 & $ F D h p.[ 5 h 8 l ] s $ $ $ $ $ $ $ $ 4.3  .Q.Q.Q.Q.F.F.4.l           ",
"                8 J.l $ $ $ $ $ l c.4.n.F.P.Q.J.Q.J.3 $ $ $ $ $ $ 3 F. .3 N.Q.Q.Q.N.F.c.l           ",
"              ( >.Q.N.$ 7 8 3 c.E.!.Q.Q.Q.Q.Q.Q.Q.J.( $ $ $ $ $ $ 3 F.c.$ c.Q.Q.J.F.F.c. .l         ",
"              8 F.Q. .$ &.( N.Q.D.Q.Q.Q.Q.Q.Q.Q.Q.Q.c.3 $ $ $ $ $ $ N.Q.N.J.J.P.J.F.F.c...8         ",
"              l J.J.3 $ c.l F.Q.Q.Q.Q.Q.Q.Q.Q.Q.Q.^.J.l $ 8 $ $ $ $ c.J.Q.Q.J.Q.J.F.F.c.>.3         ",
"            (  .J.J.$ 3 F.c.J.J.Q.Q.Q.Q.Q.Q.Q.Q.Q.F.J. .8 F.( $ $ $  .F.J.4.J.^.D.D.D.4.>.8         ",
"            l c.Q.J.$ 5 J.>.F.Q.Q.Q.Q.Q.Q.Q.Q.Q.Q.F.J.>.8 J.c.$ $ $ 8 F.N.8 F.J.D.D.N.4.>.8         ",
"            3 F.Q.Q.$ 3 F.Q.Q.Q.Q.Q.Q.Q.Q.Q.Q.Q.Q.Q.Q.4.3 F.J.l $ $ $ >.J.Q.Q.F.F.F.N.4.>.3         ",
"          ( 8 F.Q.Q.8 3 F.Q.Q.Q.Q.Q.Q.Q.Q.Q.Q.Q.Q.Q.Q.c.$ N.Q. .$ $ $ l F.Q.Q.F.F.N.c.4. .$         ",
"          8 ( F.Q.Q.N.4.J.Q.Q.Q.Q.Q.Q.Q.Q.Q.Q.Q.Q.Q.Q.n.$ 4.Q.4.$ $ $ $ c.Q.J.F.F.N.4.4.>.3 l       ",
"          8 ( F.Q.Q.Q.F.J.J.Q.Q.Q.Q.Q.Q.Q.Q.Q.Q.Q.Q.H.8 $ >.L.N.$ $ $ $ 4.J.F.N.N.N.4.4.( l l       ",
"          8 ( N.Q.Q.Q.Q.^.Q.Q.Q.Q.Q.Q.Q.Q.Q.Q.Q.Q.Q.J...$ >.L.F.$ $ $ $ ( N.F.F.N.4.4.4.( ( 8       ",
"          8 ( N.Q.Q.Q.Q.Q.Q.Q.Q.Q.Q.J.J.H.J.J.J.J.L.Q.4.$ >.Q.F.$ $ $ $ l F.F.F.N.4.>.4.8  .8       ",
"          ( 8 c.J.Q.Q.Q.Q.Q.Q.Q.J.F.F.J.Q.Q.Q.Q.Q.J.J.4.$ c.Q.Q.$ $ $ $ l F.F.F.4.4.4. .l >.l       ",
"            8 4.F.J.Q.Q.Q.Q.J.F.F.F.L.Q.Q.Q.Q.Q.Q.Q.L.F. .>.J.Q.$ $ $ $ l F.F.c.4.4.4.l ( 4.l       ",
"          l $ 4.N.F.F.Q.Q.J.F.N.N.D.Q.Q.Q.Q.Q.Q.Q.Q.Q.W.4.3 D.Q.l $ $ $ n B.c.4.4.4.4.3 >.4.3       ",
"      s s y % l c.N.F.F.N.F.F.c. .4.F.J.Q.Q.Q.Q.Q.Q.Q.Q.D.m.D.F.>.$ $ $ ( N.4.1.4.>.( >.c.4.3 (     ",
"  F R t.y.F  .8 4.c.N.N.F.J.J.F.c. .( >.c.N.F.F.H.J.H.F.N.c.c.c.c.$ $ $  .4.4.4.4.>.8 c.n.>.s K h   ",
"l z.T.T.W c.N.>.( 4.4.N.F.Q.Q.Q.N.N.4.>.( l 8 8 7 8 8 8 l n ( >.N. .$ 3 >.4.4.4.>.8 >.N.c.>.E T.l.r ",
"Y U.%Xk.' F.B.F.8 >.4.4.c.N.J.J.B.D.D.N.c.4.4.4.4.4.4.c.c.N.D.D.N.c.>.l 1.4.>.( l >.N.N.h.| r.U.&XD ",
"( E f.+.>.N.F.B.c.l  .4.4.4.c.c.m.N.N.B.F.N.m.m.c.N.N.N.D.B.N.n.c.4.( 3 ' 4... .1.B.N.c.4.Q u.g.i.F ",
"  l 7 6 >.N.N.F.F.4.8 ( >.4.c.4.4.4.c.4.>.4.F.F.F.F.F.D.c.>. .4.>.4.l $ ( 4.4.1.4.N.c.4.4.s R s l   ",
"      ( 8 8 l  .c.N.F.c. .>.4.4.4.4.4.4.>.( l l l l n l ( >.4.4.4.4.4. .4.1.4.4.4.>. .l 3 8 F       ",
"            l l l ( ( (  . .>.>.>.>.1.4.1.4.4.>.>.>.>.1.4.1.4.1.>.>.>. . . .( l l l l l             ",
"                      8 8 8 t 8 3 8 s l l n ( l Q n l ( n l l l 8 3 8 l 8 8 8 (                     "
};
