/* XPM */
static char *result[] = {
/* columns rows colors chars-per-pixel */
"50 50 187 2 ",
"   c black",
".  c #010000",
"X  c #010101",
"o  c #020202",
"O  c #030302",
"+  c gray1",
"@  c #040404",
"#  c #050404",
"$  c #050504",
"%  c gray2",
"&  c #060504",
"*  c #060505",
"=  c #060605",
"-  c #070605",
";  c #060606",
":  c #070606",
">  c #070707",
",  c #090807",
"<  c #0A0807",
"1  c #0A0907",
"2  c gray3",
"3  c #090909",
"4  c #0A0908",
"5  c #0B0908",
"6  c #0A0909",
"7  c #0B0909",
"8  c #0B0A09",
"9  c gray4",
"0  c #0B0B0B",
"q  c #0D0A09",
"w  c #0C0B09",
"e  c #0C0A0A",
"r  c #0C0B0A",
"t  c #0D0B0A",
"y  c #0C0B0B",
"u  c #0D0C0A",
"i  c #0D0C0B",
"p  c #0E0C0A",
"a  c #0E0C0B",
"s  c #0F0C0B",
"d  c #0E0D0B",
"f  c #0F0D0B",
"g  c #0C0C0C",
"h  c #0D0C0C",
"j  c gray5",
"k  c #0E0C0C",
"l  c #0F0D0C",
"z  c #0F0E0D",
"x  c #0E0E0E",
"c  c #0F0F0E",
"v  c gray6",
"b  c #110F0E",
"n  c #140F0D",
"m  c #180E0E",
"M  c #10100F",
"N  c #11100F",
"B  c #13100E",
"V  c #13110F",
"C  c #15100D",
"Z  c #14110E",
"A  c #1A120F",
"S  c #101010",
"D  c #111111",
"F  c #121111",
"G  c gray7",
"H  c #131313",
"J  c #141110",
"K  c #141210",
"L  c #141211",
"P  c #151211",
"I  c #151311",
"U  c #161210",
"Y  c #171311",
"T  c #141212",
"R  c #151413",
"E  c gray8",
"W  c #151515",
"Q  c #161514",
"!  c #161515",
"~  c #161616",
"^  c gray9",
"/  c #181310",
"(  c #1B1310",
")  c #191613",
"_  c #1B1613",
"`  c #1E1611",
"'  c #1F1612",
"]  c #181615",
"[  c #191615",
"{  c #1A1615",
"}  c #191716",
"|  c #181717",
" . c #1E1714",
".. c #1B1814",
"X. c #181817",
"o. c #1E1B17",
"O. c #181818",
"+. c #191918",
"@. c #191919",
"#. c gray10",
"$. c #1B1B1B",
"%. c #1C1918",
"&. c #1C1A18",
"*. c #1C1B1B",
"=. c gray11",
"-. c #1D1D1D",
";. c #1E1D1C",
":. c #1E1E1E",
">. c gray12",
",. c #290707",
"<. c #220B0B",
"1. c #2D0909",
"2. c #2D0C0D",
"3. c #310808",
"4. c #340D0D",
"5. c #3B090A",
"6. c #3B0B0B",
"7. c #3D0808",
"8. c #241212",
"9. c #271313",
"0. c #241515",
"q. c #251515",
"w. c #2B1313",
"e. c #201813",
"r. c #231814",
"t. c #201916",
"y. c #251B15",
"u. c #291C17",
"i. c #201B1B",
"p. c #201D1A",
"a. c #201C1C",
"s. c #211E1E",
"d. c #201F1F",
"f. c #261F1F",
"g. c #2A1A1A",
"h. c #2A1E18",
"j. c #2C2019",
"k. c #32241C",
"l. c #37271E",
"z. c #202020",
"x. c gray13",
"c. c #232121",
"v. c #222222",
"b. c #232323",
"n. c #252020",
"m. c #252121",
"M. c gray14",
"N. c #252525",
"B. c #262424",
"V. c #272525",
"C. c gray15",
"Z. c #272727",
"A. c #292121",
"S. c #282727",
"D. c #2A2626",
"F. c #282828",
"G. c #292828",
"H. c gray16",
"J. c #2A2A2A",
"K. c #2B2A2A",
"L. c gray17",
"P. c #2C2C2C",
"I. c #2D2D2D",
"U. c gray18",
"Y. c #2F2F2F",
"T. c #3A2920",
"R. c #3C2A21",
"E. c gray19",
"W. c #313131",
"Q. c #323232",
"!. c gray20",
"~. c #440606",
"^. c #450707",
"/. c #4B0303",
"(. c #410B0B",
"). c #4E0808",
"_. c #510303",
"`. c #610606",
"'. c #680505",
"]. c #6B0404",
"[. c #680506",
"{. c #760202",
"}. c #830202",
"|. c #8A0101",
" X c #8D0202",
".X c #970202",
"XX c None",
/* pixels */
"XXXXXXXXXXXXXXXXXXXXXXXXXXXXXXXXXXXXXXXXXXXXXXXXXXXXXXXXXXXXXXXXXXXXXXXXXXXXXXXXXXXXXXXXXXXXXXXXXXXX",
"XXXXXXXXXXXXXXXXXXXXXXXXXXXXXXXXXXXXXXXXXXXXXXXXXXXXXXXXXXXXXXXXXXXXXXXXXXXXXXXXXXXXXXXXXXXXXXXXXXXX",
"XXXXXXXXXXXXXXXXXXXXXXXXXXXXXXXXXXXXXXXXXXXXXXXXXXXXXXXXXXXXXXXXXXXXXXXXXXXXXXXXXXXXXXXXXXXXXXXXXXXX",
"XXXXXXXXXXXXXXXXXXXXXXXXXXXXXXXXXXXXXXXXXXXXXXXXXXXXXXXXXXXXXXXXXXXXXXXXXXXXXXXXXXXXXXXXXXXXXXXXXXXX",
"XXXXXXXXXXXXXXXXXXXXXXXXXXXXXXXXXXXXXXXXXXXXXXXXXXXXXXXXXXXXXXXXXXXXXXXXXXXXXXXXXXXXXXXXXXXXXXXXXXXX",
"XXXXXXXXXXXXXXXXXXXXXXXXXXXXXXXXXXXXXXXXXXXXXXXXXXXXXXXXXXXXXXXXg S XXXXXXXXXXXXXXXXXXXXXXXXXXXXXXXX",
"XXXXXXXXXXXXXXXXXXXXXXXXXXXXXXXXXXXXXXXXXXXXXXXXXXXXXXXXXXXXXXXX0 W H XXXXXXXXXXXXXXXXXXXXXXXXXXXXXX",
"XXXXXXXXXXXXXXXXXXXXXXXXXXXXXXXXXXXXXXXXXXXXXXXXXXXXXXXXXXXXXXXXXX$.b.H XXXXXXXXXXXXXXXXXXXXXXXXXXXX",
"XXXXXXXXXXXXXXXXXXXXXXXXXXXXXXXXXXXXXXXXXXXXXXXXXXXXXXXXXXXXXXXXXX-.H.=.S XXXXXXXXXXXXXXXXXXXXXXXXXX",
"XXXXXXXXXXXXXXXXXXXXXXXXXXXXXXXXXXXXXXXXXXXXXXXXXXXXXXXXXXXXXXXXg F.L.M.$.XXXXXXXXXXXXXXXXXXXXXXXXXX",
"XXXXXXXXXXXXXXXXXXXXXXXXXXXXXXXXXXXXXXXXXXXXXXXXXXXXXXXXXXXXXXXXv Q.L.N.b.g XXXXXXXXXXXXXXXXXXXXXXXX",
"XXXXXXXXXXXXXXXXXXXXXXXXg XXXXXXXXXXXXXXXXXXXXXXXXXXXXj g j x j >.Y.F.N.x.G XXXXXXXXXXXXXXXXXXXXXXXX",
"XXXXXXXXXXXXXXXXXXXXXXj H ; XXXXXXXXXXXXXXXXXXXXXXv W x.b.z.-.j N.L.F.M.z.H XXXXXXXXXXXXXXXXXXXXXXXX",
"XXXXXXXXXXXXXXXXXXXXXXO.v.3 XXXXXXXXXXXXXXj x v H Z.E.W.W.W.Y.H.#.x.Z.v.z.S XXXXXXXXXXXXXXXXXXXXXXXX",
"XXXXXXXXXXXXXXXXXXXXXXz.Z.D XXXXXXXXXXS g g W O.v.W.W.G.m.B.J.Y.M.^ N.>.x.j XXXXXXXXXXXXXXXXXXXXXXXX",
"XXXXXXXXXXXXXXXXXXXXXXN.H.=.W g 3 S D @.~ O.-.N.P.I.n.6._.7.8.S.F.S >.>.$.XXXXXXXXXXXXXXXXXXXXXXXXXX",
"XXXXXXXXXXXXXXXXXXXXXXH.P.:.O.S O.b.>.v.>.v.=.L.U.c.2.}.|.'.5.s.C.0 O.:.G XXXXXXXXXXXXXXXXXXXXXXXXXX",
"XXXXXXXXXXXXXXXXXXXXXXN.U.#.^ S.D.K.I.#.b.P.z.>.:.,.]..X X[.(.V.I.N.#.g 0 v H XXXXXXXXXXXXXXXXXXXXXX",
"XXXXXXXXXXXXXXXXXXXXXXv.!.O.x.g.4.0.x.^ z.H.v.~ W <.^.`.'.^.w.U.Q.W.J.~ G #.v XXXXXXXXXXXXXXXXXXXXXX",
"XXXXXXXXXXXXXXXXXXXXXXH U.E a.).{.~.m >.F.I.I.P.P.S.f.q.9.A.K.U.F.*.! I d @.W XXXXXXXXXXXXXXXXXXXXXX",
"XXXXXXXXXXXXXXXXXXXXXXj -.~ T 3./.1.i.I.E.W.W.Q.Q.W.E.L.H.J.M.X.M p.J B z O.S XXXXXXXXXXXXXXXXXXXXXX",
"XXXXXXXXXXXXXXXXXXXXXXXXx j =.P.H.P.P.C.M.v.z.d.=.;.+.R c 6 8 b l ; r -.Z.$.W S XXXXXXXXXXXXXXXXXXXX",
"XXXXXXXXXXXXXXXXXXXXXXXXW W F.I.F.z.;.%.] V u V 7 ) f w 1 5 5 , * o x L.W.F.v.v XXXXXXXXXXXXXXXXXXXX",
"XXXXXXXXXXXXXXXXXXXXXXW @.S H R c l o.V d p - 4 < a u d , - & X   H M.E.Q.I.C.G g XXXXXXXXXXXXXXXXXX",
"XXXXXXXXXXXXXXXXXXXXXXW ~ x 0 : # 4 a 4 , 5 K 1 ..# $ = + .     X ^ I.E.W.Y.Z.@.x XXXXXXXXXXXXXXXXXX",
"XXXXXXXXXXXXXXXXXXXXXXg z.G % O o i N &.&.Q | O.=.v X         + @.j #.E.Q.U.F.v.H XXXXXXXXXXXXXXXXXX",
"XXXXXXXXXXXXXXXXXXXXXXD N.S @ + + D :.N.Z.U.E.Y.W.x.;         ; >.G v P.Q.U.F.b.~ XXXXXXXXXXXXXXXXXX",
"XXXXXXXXXXXXXXXXXXXXXX=.P.G > v ^ P.I.Q.Q.Q.Q.Q.Q.J.W X       + -.C.z.I.W.P.F.b.#.XXXXXXXXXXXXXXXXXX",
"XXXXXXXXXXXXXXXXXXXXXXz.I.2 g E z.E.E.Q.Q.Q.Q.Q.Q.Y.z.@ ; X   X O.Y.Y.U.E.J.F.b.$.3 XXXXXXXXXXXXXXXX",
"XXXXXXXXXXXXXXXXXXXXH J.Y.o H v.Z.E.Q.Q.Q.Q.Q.Q.Q.P.N.j >.D     0 J.M.N.Y.F.F.v.=.0 XXXXXXXXXXXXXXXX",
"XXXXXXXXXXXXXXXXXXXXH I.E.+ E N.F.Q.Q.Q.Q.Q.Q.Q.Q.Y.H.v x.=.@   @ C.v.M.P.F.Z.x.=.3 XXXXXXXXXXXXXXXX",
"XXXXXXXXXXXXXXXXXXj E Y.Q.> G Y.Q.Q.Q.Q.Q.Q.Q.Q.Q.Q.P.x -.C.j     =.U.W.P.F.C.z.$.; XXXXXXXXXXXXXXXX",
"XXXXXXXXXXXXXXXXXXj ^ E.Q.#.=.E.Q.Q.Q.Q.Q.Q.Q.Q.Q.Q.I.g ^ J.G     D J.Y.J.F.N.:.#.> XXXXXXXXXXXXXXXX",
"XXXXXXXXXXXXXXXXXXj #.Y.Q.E.I.E.W.Q.Q.Q.Q.Q.Q.Q.Q.E.v.% G I.@.    3 z.J.F.C.x.:.~ x XXXXXXXXXXXXXXXX",
"XXXXXXXXXXXXXXXXXXg @.U.Q.Q.W.Q.Q.Q.Q.W.E.E.E.E.E.W.F.2 D U.=.    ; #.F.F.M.>.:.E D g XXXXXXXXXXXXXX",
"XXXXXXXXXXXXXXXXXXx W J.W.Q.Q.Q.Q.E.I.L.P.E.E.E.E.U.F.0 ~ E.z.    % ^ F.F.z.:.#.D W j XXXXXXXXXXXXXX",
"XXXXXXXXXXXXXXXXXXj D Z.Y.Q.Q.Q.W.L.H.L.Y.Q.Q.Q.Q.Y.L.O.@.E.v.o   @ ~ F.C.:.:.W S ^ j XXXXXXXXXXXXXX",
"XXXXXXXXXXXXXXXXXX4 6 >.C.P.U.P.H.M.b.P.E.Q.Q.Q.Q.Q.W.Z.~ J.N.;   % O.M.>.:.=.G @.~ 9 XXXXXXXXXXXXXX",
"XXXXXXXXXXXXXXZ C t y @.b.F.F.H.H.x.#.x.C.P.U.Y.E.E.Y.J.N.C.b.9   > @.z.:.:.O.^ x.! e L XXXXXXXXXXXX",
"XXXXXXXXXX_ j.k.y.-.-.W =.M.Z.I.E.L.M.-.#.^ W E E W E E W @.:.~ % g $.:.:.@.G z.M.} ' h./ XXXXXXXXXX",
"XXXXXXXXXX .T.l.t.C.C.W ~ >.x.F.I.P.F.C.b.=.@.^ ~ ^ O.$.-.x.M.x.~ G -.-.@.H #.N.v.{ u.R.` XXXXXXXXXX",
"XXXXXXXXXXP ( A [ Z.F.N.O.~ $.:.z.v.b.N.N.b.N.N.N.C.Z.C.M.x.x.>.W 2 O.$.@.z.C.x.:.U r.e.Y XXXXXXXXXX",
"XXXXXXXXXXXXh q F =.z.M.v.~ O.=.:.:.:.z.>.#.-.>.>.>.>.:.$.$.:.:.~ j #.:.:.>.>.#.~ s n k XXXXXXXXXXXX",
"XXXXXXXXXXXXXXXXXXx v G ~ O.~ ^ @.$.=.=.-.=.@.^ ~ ~ ^ #.=.-.-.=.$.@.@.~ E G S v x XXXXXXXXXXXXXXXXXX",
"XXXXXXXXXXXXXXXXXXXXXXXXH v v v v v v D G H E E H H E E H G D v x S x x v S XXXXXXXXXXXXXXXXXXXXXXXX",
"XXXXXXXXXXXXXXXXXXXXXXXXXXXXXXXXXXXXXXXXXXXXXXXXXXXXXXXXXXXXXXXXXXXXXXXXXXXXXXXXXXXXXXXXXXXXXXXXXXXX",
"XXXXXXXXXXXXXXXXXXXXXXXXXXXXXXXXXXXXXXXXXXXXXXXXXXXXXXXXXXXXXXXXXXXXXXXXXXXXXXXXXXXXXXXXXXXXXXXXXXXX",
"XXXXXXXXXXXXXXXXXXXXXXXXXXXXXXXXXXXXXXXXXXXXXXXXXXXXXXXXXXXXXXXXXXXXXXXXXXXXXXXXXXXXXXXXXXXXXXXXXXXX",
"XXXXXXXXXXXXXXXXXXXXXXXXXXXXXXXXXXXXXXXXXXXXXXXXXXXXXXXXXXXXXXXXXXXXXXXXXXXXXXXXXXXXXXXXXXXXXXXXXXXX",
"XXXXXXXXXXXXXXXXXXXXXXXXXXXXXXXXXXXXXXXXXXXXXXXXXXXXXXXXXXXXXXXXXXXXXXXXXXXXXXXXXXXXXXXXXXXXXXXXXXXX"
};
