/* XPM */
static char *result[] = {
/* columns rows colors chars-per-pixel */
"50 50 190 2 ",
"   c #361F00",
".  c #362001",
"X  c #3A2200",
"o  c #432A01",
"O  c #4D3303",
"+  c #513502",
"@  c #553A01",
"#  c #5A3E01",
"$  c #5F4200",
"%  c #624501",
"&  c #654801",
"*  c #6C4D01",
"=  c #704F00",
"-  c #6F5002",
";  c #745401",
":  c #7C5B03",
">  c #795905",
",  c #7E6004",
"<  c #815F02",
"1  c #846406",
"2  c #896503",
"3  c #8D6A03",
"4  c #83640A",
"5  c #8E6D09",
"6  c #926E03",
"7  c #937003",
"8  c #9C7903",
"9  c #9C7706",
"0  c #876914",
"q  c #977816",
"w  c #A47D04",
"e  c #A68405",
"r  c #AC8500",
"t  c #A3810D",
"y  c #B58C03",
"u  c #B28D0A",
"i  c #BC9303",
"p  c #BF990E",
"a  c #BF9807",
"s  c #AC8B15",
"d  c #B7981C",
"f  c #BEA01D",
"g  c #9F8627",
"h  c #A2892F",
"j  c #BE9F26",
"k  c #B9A33C",
"l  c #C39B00",
"z  c #CA9E01",
"x  c #C09606",
"c  c #C09F17",
"v  c #CCA201",
"b  c #CBA40D",
"n  c #D3A502",
"m  c #DAA500",
"M  c #D4AA02",
"N  c #DDAB01",
"B  c #DCAD09",
"V  c #D4AB09",
"C  c #DCB103",
"Z  c #DBB20A",
"A  c #CAAB1E",
"S  c #C7A517",
"D  c #DBAB13",
"F  c #DCB513",
"G  c #D8B619",
"H  c #DCBA1A",
"J  c #E0AE01",
"K  c #E4B401",
"L  c #E8B601",
"P  c #E6B806",
"I  c #EBBB02",
"U  c #E2B40B",
"Y  c #E2BA0C",
"T  c #EBBE0B",
"R  c #F0BF01",
"E  c #E5BB13",
"W  c #D6B72A",
"Q  c #C0A834",
"!  c #D4BA36",
"~  c #E6BC21",
"^  c #EFC105",
"/  c #ECC30C",
"(  c #F3C401",
")  c #F6C901",
"_  c #FACC04",
"`  c #F2C40B",
"'  c #F5C90B",
"]  c #FBCE0A",
"[  c #F8C600",
"{  c #FBD206",
"}  c #FDD10C",
"|  c #ECC315",
" . c #EBC21C",
".. c #EECA18",
"X. c #F4CA13",
"o. c #FACE16",
"O. c #F5CB1D",
"+. c #F5CA16",
"@. c #F7D316",
"#. c #FED313",
"$. c #F7D31A",
"%. c #FDD51B",
"&. c #FFD91D",
"*. c #DDC12E",
"=. c #DAC23C",
"-. c #ECC522",
";. c #EECA26",
":. c #E4C62B",
">. c #EFCB29",
",. c #F6CD24",
"<. c #F3CD2C",
"1. c #F8CF2D",
"2. c #F3C925",
"3. c #F6D123",
"4. c #FBD523",
"5. c #FFDA23",
"6. c #F6D42C",
"7. c #FAD42A",
"8. c #FEDC2B",
"9. c #E5C932",
"0. c #F3CD32",
"q. c #EAD036",
"w. c #FAD234",
"e. c #FDDE34",
"r. c #F3D53C",
"t. c #F5DA3C",
"y. c #FDDE39",
"u. c #F8D736",
"i. c #FEE124",
"p. c #FDE42B",
"a. c #FFE92B",
"s. c #FEE234",
"d. c #FEEA34",
"f. c #FEE23C",
"g. c #FEEA3B",
"h. c #B9A440",
"j. c #D3BD47",
"k. c #D9C44A",
"l. c #DDC646",
"z. c #ECCB43",
"x. c #E6CB4D",
"c. c #EAD347",
"v. c #F4D241",
"b. c #F3DA43",
"n. c #F8DB44",
"m. c #F6DD4B",
"M. c #FBDC52",
"N. c #F3DC5B",
"B. c #FADE5B",
"V. c #FEE443",
"C. c #FFEA44",
"Z. c #FEE54B",
"A. c #FFEA4D",
"S. c #FCE452",
"D. c #FEEB53",
"F. c #FEED5C",
"G. c #F3E058",
"H. c #E5D867",
"J. c #F3DB6A",
"K. c #FEEE63",
"L. c #F4E56D",
"P. c #FAE26C",
"I. c #FCEC6D",
"U. c #F7E76B",
"Y. c #FFF066",
"T. c #FFF16C",
"R. c #F7EB74",
"E. c #FCEE73",
"W. c #FCE47C",
"Q. c #FBED7D",
"!. c #F7E778",
"~. c #FFF273",
"^. c #FEF57D",
"/. c #FFF87E",
"(. c #FBE684",
"). c #FBED85",
"_. c #FCEF8F",
"`. c #FFF581",
"'. c #FFF881",
"]. c #FAE992",
"[. c #FCEE9D",
"{. c #FCF097",
"}. c #FEF39A",
"|. c #FDF5AE",
" X c #FEF4A4",
".X c #FDF5B5",
"XX c #FEF5BB",
"oX c #FDF7C7",
"OX c #FDF9D2",
"+X c None",
/* pixels */
"+X+X+X+X+X+X+X+X+X+X+X+X+X+X+X+X+X+X+X+X+X+X+X+X+X+X+X+X+X+X+X+X+X+X+X+X+X+X+X+X+X+X+X+X+X+X+X+X+X+X",
"+X+X+X+X+X+X+X+X+X+X+X+X+X+X+X+X+X+X+X+X+X+X+X+X+X+X+X+X+X+X+X+X+X+X+X+X+X+X+X+X+X+X+X+X+X+X+X+X+X+X",
"+X+X+X+X+X+X+X+X+X+X+X+X+X+X+X+X+XC.A.D.F.Y.T.~.`.!.J.z.E K +X+X+X+X+X+X+X+X+X+X+X+X+X+X+X+X+X+X+X+X",
"+X+X+X+X+X+X+X+X+X+X+X+X+X+X+Xg.C.A.A.A.D.D.D.D.F.Y.`.[.(.v.` R R T +X+X+X+X+X+X+X+X+X+X+X+X+X+X+X+X",
"+X+X+X+X+X+X+X+X+X+X+X+X+Xs.f.C.C.C.A.A.A.A.D.D.D.D.D.F.).|.].1.[ R R R +X+X+X+X+X+X+X+X+X+X+X+X+X+X",
"+X+X+X+X+X+X+X+X+X+X+X8.s.g.f.f.f.C.C.C.C.A.A.A.A.D.D.D.D.K.}.oXB.[ [ [ [ ` +X+X+X+X+X+X+X+X+X+X+X+X",
"+X+X+X+X+X+X+X+X+X+X5.s.s.f.f.f.f.t.9.*.*.*.q.t.C.A.A.D.D.D.D.^.oXW.] [ ) [ ( +X+X+X+X+X+X+X+X+X+X+X",
"+X+X+X+X+X+X+X+X+X7.e.s.s.s.s.:.d q g k k.k.l.l.! =.b.A.A.A.D.A.E.OXW.] ) ) ) ` +X+X+X+X+X+X+X+X+X+X",
"+X+X+X+X+X+X+X+X7.8.8.p.s.:.s q h.H.R.'.'.'././.R.H.k.=.V.A.A.A.A.~.OXP.] ] _ [ ` +X+X+X+X+X+X+X+X+X",
"+X+X+X+X+X+X+X3.5.8.8.8.A 4 h H././.'.'.'./.'././.'./.H.=.c.A.A.D.A.`.OXM.%.o.] _ ) +X+X+X+X+X+X+X+X",
"+X+X+X+X+X+X+X&.5.5.5.c , k E.^.^.^.Q.R.L.L.L.R./.'./.'.R.l.b.A.A.A.Z.}.XXy.,.o.' ' ` +X+X+X+X+X+X+X",
"+X+X+X+X+X+X$.&.5.5.S 4 k F.Y.Y.I.K.j , q f f *.R././.`.'.^.x.b.Z.A.A.F.XX(.w.1.4.O.X.+.+X+X+X+X+X+X",
"+X+X+X+X+X+X%.&.&.E 7 d V.A.D.D.F.K.W r p t.d.t.R.^.^./.'./.R.c.f.C.C.Z.W.XXM.w.1.,.2.+.+X+X+X+X+X+X",
"+X+X+X+X+X$.&.%.%.u t 6.s.s.f.V.C.K.6.C / g.g.C.I.~.^././.^./.R.c.C.Z.C.Z. XW.w.0.,.O.| / +X+X+X+X+X",
"+X+X+X+X+X%.%.&.F w H 5.8.p.s.f.f.F.6.C Z g.g.V.K.~.~.~.~.^.^.^.J.t.C.V.V.E.[.v.0.<. .| / +X+X+X+X+X",
"+X+X+X+X3.%.&.%.a u 4.&.&.5.8.p.s.D.;.C F g.g.f.F.Y.T.T.~.~.~.~.E.b.f.V.V.D.[.M.0.<. .| / +X+X+X+X+X",
"+X+X+X+X4.5.5.| y F &.&.&.&.5.p.8.S.;.N Y d.g.g.D.K.K.Y.T.T.T.T.~.G.t.V.V.V.Q.J. .E P C C C +X+X+X+X",
"+X+X+X+X7.5.5.Y x +.&.&.&.5.&.5.8.D.-.N Z d.d.d.D.D.F.F.K.Y.Y.T.Y.F.t.f.f.f.K.P.E P C C M V +X+X+X+X",
"+X+X+X+X5.8.5.P V &.5.5.5.5.5.5.5.Z. .N Z a.d.s.Z.S.D.D.F.F.Y.K.Y.Y.t.f.f.f.Z.U.G v M M v v +X+X+X+X",
"+X+X+X6.8.7.4.T T 5.5.5.5.5.8.5.8.Z. .C F p.p.p.f.C.Z.A.D.F.D.F.F.Y.n.e.f.f.C.F.G v v v l l +X+X+X+X",
"+X+X+X7.7.7.5.` X.&.&.&.5.5.8.e.s.Z.E N Y p.a.p.f.V.V.Z.A.A.D.D.D.D.m.u.s.f.f.V.G a a i i i y +X+X+X",
"+X+X+X7.5.5.8.$.X.&.&.&.&.&.5.8.s.V.E M Z p.a.8.f.V.V.V.V.A.A.S.D.D.V.e.f.f.s.4.b r r r e e w +X+X+X",
"+X+X+X4.%.%.f.s.} } } #.#.&.%.5.8.y.E M Z a.a.i.V.V.V.V.V.Z.V.Z.Z.Z.V.e.f.s.f.+.i 7 7 3 3 6 3 +X+X+X",
"+X+X+X+.#.#.f.Z.} _ _ _ _ } } #.&.e.Z n Z a.a.8.V.V.Z.V.V.V.V.V.V.Z.n.e.f.f.f.E e - - - * * - +X+X+X",
"+X+X+XX.} } y.K.&.[ [ [ ) ) _ { #.8.Z v Z i.p.8.y.n.V.V.V.V.V.V.V.V.n.f.f.f.f.F 2 $ % % $ $ % +X+X+X",
"+X+X+X` _ _ 8.Q.8.( ( ( ( [ ) ) _ 4.Z l Z i.i.8.e.e.y.y.n.f.V.V.V.V.y.f.f.V.y.b ; $ $ $ $ $ % +X+X+X",
"+X+X+X+X[ ) o._.m.[ R ( ( ( ( ( ) @.V v Z i.a.&.&.5.8.e.y.y.f.V.V.V.e.y.f.V.u.u $ O O O O + +X+X+X+X",
"+X+X+X+X( ) _ Q.I.` I I I ^ ( ( [ ' V v Z i.i.@.] #.%.&.5.8.e.e.y.y.8.y.f.f.q.6 o X X X X X +X+X+X+X",
"+X+X+X+X` ) ) B.}.,.L L L L I I I ' B z V i.i.@._ ] ] #.#.%.5.7.e.8.8.e.s.s.W ; X . . .   . +X+X+X+X",
"+X+X+X+X` ) [ 4.|.M.L J K K L L I ( N z C i.i.@.) ) _ _ ] ] #.%.&.5.8.e.e.e.s * @ # @ + @ O +X+X+X+X",
"+X+X+X+X+X( ( ) (.}. .J J J J K K I M z Z &.5.@.( ) [ ) _ _ ] ] #.#.5.5.8.;.1 & & & & & & +X+X+X+X+X",
"+X+X+X+X+X^ ) ) 7..XB.J N J N J J I n l C &.i.@.^ ( ( [ ) _ _ ] ] #.&.&.5.S & % % % % % % +X+X+X+X+X",
"+X+X+X+X+XY [ ( ( P.|.0.N N N N m L U n U &.i.@.I I ^ ( [ ) ) { } #.#.%.O.4 $ % % & % & +X+X+X+X+X+X",
"+X+X+X+X+X+XT [ ( ' ].[.-.N m m m ~ J.m.f.f.g.8.I I I ^ ( ( ) { } #.#.#.p # & * * * = ; +X+X+X+X+X+X",
"+X+X+X+X+X+X+X^ ( ( O.[._.E N m m D x.z.z.r.v.<.K L I I I ( { } } ] } | * $ = * ; ; : +X+X+X+X+X+X+X",
"+X+X+X+X+X+X+XP ( ( ( O.].).-.N m m m m N N N N K K K I ^ { { ] ] } ] 5 + = = ; ; ; > +X+X+X+X+X+X+X",
"+X+X+X+X+X+X+X+XI ( ( ( X.J.].m.E m m m m m N N N J P / { { _ { ] } u O * = ; ; ; > +X+X+X+X+X+X+X+X",
"+X+X+X+X+X+X+X+X+XI ( ( [ ( 1.I.!.n.~ E J J B Z E ..@.{ _ _ _ _ { x + % ; ; ; ; > +X+X+X+X+X+X+X+X+X",
"+X+X+X+X+X+X+X+X+X+XI ( R ( ( ( O.n.S.M.m.v.r.6.%.' _ _ ) _ _ _ a O $ ; ; ; ; > +X+X+X+X+X+X+X+X+X+X",
"+X+X+X+X+X+X+X+X+X+X+XP ( ( ( ( ( ( ( ' ' ' ) ) [ [ ) ) ) _ ^ e + % ; ; ; > > +X+X+X+X+X+X+X+X+X+X+X",
"+X+X+X+X+X+X+X+X+X+X+X+XB T ( ( ( ( ( ( ( ( ( ( [ ) ) _ _ V : + ; : : < < +X+X+X+X+X+X+X+X+X+X+X+X+X",
"+X+X+X+X+X+X+X+X+X+X+X+X+X+XB K R ( ( ( ( ( [ _ ) ) ^ M 8 & ; 3 6 7 7 +X+X+X+X+X+X+X+X+X+X+X+X+X+X+X",
"+X+X+X+X+X+X+X+X+X+X+X+X+X+X+X+Xz V C K K K K N v i 8 , 1 8 e e e +X+X+X+X+X+X+X+X+X+X+X+X+X+X+X+X+X",
"+X+X+X+X+X+X+X+X+X+X+X+X+X+X+X+X+X+X+X+X9 2 6 5 1 +X+X+X+X+X+X+X+X+X+X+X+X+X+X+X+X+X+X+X+X+X+X+X+X+X",
"+X+X+X+X+X+X+X+X+X+X+X+X+X+X+X+X+X+X+X+X+X+X+X+X+X+X+X+X+X+X+X+X+X+X+X+X+X+X+X+X+X+X+X+X+X+X+X+X+X+X",
"+X+X+X+X+X+X+X+X+X+X+X+X+X+X+X+X+X+X+X+X+X+X+X+X+X+X+X+X+X+X+X+X+X+X+X+X+X+X+X+X+X+X+X+X+X+X+X+X+X+X",
"+X+X+X+X+X+X+X+X+X+X+X+X+X+X+X+X+X+X+X+X+X+X+X+X+X+X+X+X+X+X+X+X+X+X+X+X+X+X+X+X+X+X+X+X+X+X+X+X+X+X",
"+X+X+X+X+X+X+X+X+X+X+X+X+X+X+X+X+X+X+X+X+X+X+X+X+X+X+X+X+X+X+X+X+X+X+X+X+X+X+X+X+X+X+X+X+X+X+X+X+X+X",
"+X+X+X+X+X+X+X+X+X+X+X+X+X+X+X+X+X+X+X+X+X+X+X+X+X+X+X+X+X+X+X+X+X+X+X+X+X+X+X+X+X+X+X+X+X+X+X+X+X+X",
"+X+X+X+X+X+X+X+X+X+X+X+X+X+X+X+X+X+X+X+X+X+X+X+X+X+X+X+X+X+X+X+X+X+X+X+X+X+X+X+X+X+X+X+X+X+X+X+X+X+X"
};
