/* XPM */
static char *result[] = {
/* columns rows colors chars-per-pixel */
"50 50 238 2 ",
"   c #633B2B",
".  c #6A3D2A",
"X  c #5F3729",
"o  c #6F442E",
"O  c #74462F",
"+  c #7B4C33",
"@  c #764833",
"#  c #79503C",
"$  c #794A46",
"%  c #7B5751",
"&  c #77544D",
"*  c #854E36",
"=  c #8D5B3B",
"-  c #885538",
";  c #935B3B",
":  c #985E3C",
">  c #AB5A3A",
",  c #A7573A",
"<  c #B75A38",
"1  c #9C623E",
"2  c #93613E",
"3  c #B3633C",
"4  c #AC6F3E",
"5  c #C46B3F",
"6  c #864C46",
"7  c #985A44",
"8  c #845B55",
"9  c #8E5841",
"0  c #A25D47",
"q  c #BB5943",
"w  c #8C6048",
"e  c #9B6444",
"r  c #9C6A45",
"t  c #986849",
"y  c #8A655E",
"u  c #966958",
"i  c #9E7050",
"p  c #A36343",
"a  c #A46C44",
"s  c #AB6C44",
"d  c #A46D4A",
"f  c #AB6D4B",
"g  c #A96644",
"h  c #B26345",
"j  c #B36A46",
"k  c #B46B4B",
"l  c #AD734C",
"z  c #A8764B",
"x  c #B3734B",
"c  c #B47A4D",
"v  c #BA7849",
"b  c #A16855",
"n  c #B66E50",
"m  c #AD7C53",
"M  c #AA7858",
"N  c #B47B54",
"B  c #BB7C51",
"V  c #B67454",
"C  c #8C6962",
"Z  c #926B64",
"A  c #96716A",
"S  c #98756C",
"D  c #9A7B77",
"F  c #89756E",
"G  c #AA6966",
"H  c #BD6C69",
"J  c #B56A67",
"K  c #A8786A",
"L  c #B77767",
"P  c #A87B75",
"I  c #BA7673",
"U  c #BD7976",
"Y  c #B77A75",
"T  c #C56948",
"R  c #C2734D",
"E  c #C47B4E",
"W  c #C97749",
"Q  c #CA6E53",
"!  c #CA7452",
"~  c #C37C52",
"^  c #CC7A53",
"/  c #CE7C58",
"(  c #C87453",
")  c #D07C49",
"_  c #C17A76",
"`  c #C27D79",
"'  c #C17774",
"]  c #C06C69",
"[  c #BD844C",
"{  c #BC8353",
"}  c #B78457",
"|  c #B88B5A",
" . c #9A827C",
".. c #BC8C63",
"X. c #BC8E6D",
"o. c #B88563",
"O. c #AB857A",
"+. c #B5887A",
"@. c #B9947B",
"#. c #B58969",
"$. c #C78649",
"%. c #D3864E",
"&. c #CA9648",
"*. c #D5934B",
"=. c #D8964B",
"-. c #C38254",
";. c #CB8553",
":. c #C48B52",
">. c #CB8A54",
",. c #CA845A",
"<. c #C88A5A",
"1. c #D38254",
"2. c #D28D55",
"3. c #DB8B52",
"4. c #D38D5A",
"5. c #DA8858",
"6. c #CC9454",
"7. c #CA935D",
"8. c #CC9856",
"9. c #D39356",
"0. c #D4935C",
"q. c #D9995C",
"w. c #D79658",
"e. c #E2854E",
"r. c #E38950",
"t. c #E39B55",
"y. c #EC9B59",
"u. c #E69657",
"i. c #D7A74E",
"p. c #D8A756",
"a. c #DEB45B",
"s. c #E7A857",
"d. c #ECBD5E",
"f. c #E6B659",
"g. c #EAA855",
"h. c #C78A64",
"j. c #D48C63",
"k. c #DC8E64",
"l. c #D48664",
"z. c #C69664",
"x. c #CB9664",
"c. c #CB956B",
"v. c #D79766",
"b. c #C4827D",
"n. c #C59B76",
"m. c #DA9D70",
"M. c #E39A66",
"N. c #E89D73",
"B. c #DDA86E",
"V. c #DCA873",
"C. c #DFB177",
"Z. c #CCA67D",
"A. c #ECA56B",
"S. c #EAAC6B",
"D. c #E8A665",
"F. c #F4AD66",
"G. c #EEB269",
"H. c #F1B364",
"J. c #FAB66B",
"K. c #E6AA76",
"L. c #E4B275",
"P. c #EBB674",
"I. c #ECBB76",
"U. c #ECB47C",
"Y. c #EDBB7C",
"T. c #E7B479",
"R. c #F2BD77",
"E. c #F3A675",
"W. c #F2C663",
"Q. c #F9D666",
"!. c #EEC678",
"~. c #F3C37B",
"^. c #F2CC7A",
"/. c #F6C976",
"(. c #F9D37A",
"). c #F4D37A",
"_. c #EDC161",
"`. c #FEF77D",
"'. c #FCE16E",
"]. c #987F80",
"[. c #A98985",
"{. c #B38B83",
"}. c #BB8D84",
"|. c #BD8E88",
" X c #BB948C",
".X c #BB9588",
"XX c #BC9B93",
"oX c #BC9791",
"OX c #AD918C",
"+X c #BDA299",
"@X c #BAA298",
"#X c #C58681",
"$X c #C38C86",
"%X c #C1948C",
"&X c #C29B8C",
"*X c #C59D92",
"=X c #C79F94",
"-X c #C8A487",
";X c #C9A193",
":X c #C4A49B",
">X c #CBA59D",
",X c #C7A99A",
"<X c #D8B694",
"1X c #C6ADA1",
"2X c #C9ADA3",
"3X c #D2ADA4",
"4X c #CCB3A5",
"5X c #CDB5AB",
"6X c #CBB6AC",
"7X c #D3B4AC",
"8X c #D3BBAD",
"9X c #D8B7AB",
"0X c #D4BCB3",
"qX c #D9BDB2",
"wX c #CFB9B2",
"eX c #ECC687",
"rX c #F3C783",
"tX c #F9DD82",
"yX c #FCED85",
"uX c #DBC3B5",
"iX c #D3C2BA",
"pX c #DBC5BB",
"aX c #D9C4B6",
"sX c #DCC3A8",
"dX c #E3CCBC",
"fX c #E8D3BF",
"gX c #DDCCC3",
"hX c #E2CDC1",
"jX c #E4D1C5",
"kX c #E4D5CD",
"lX c #ECDDD4",
"zX c #F0DFD4",
"xX c #F3E5DB",
"cX c #F4E9DE",
"vX c #EEE2D9",
"bX c #F7EBE2",
"nX c #F9ECE3",
"mX c None",
/* pixels */
"mXmXmXmXmXmXmXmXmXmXmXmXmXmXmXmXmXmXmXmXmXmXmXmXmXmXmXmXmXmXmXmXmXmXmXmXmXmXmXmXmXmXmXmXmXmXmXmXmXmX",
"mXmXmXmXmXmXmXmXmXmXmXmXmXmXmXmXmXmXmXmXmXmXmXmXmXmXmXmXmXmXmXmXmXmXmXmXmXmXmXmXmXmXmXmXmXmXmXmXmXmX",
"mXmXmXmXmXmXmXmXmXmXmXmXmXmXmXmXmXmXmXmXmX-Xn...| o.X.@.n.mXmXmXmXmXmXmXmXmXmXmXmXmXmXmXmXmXmXmXmXmX",
"mXmXmXmXmXmXmXmXmXmXmXmXmXmXmXmXmXn.o.m r 9 * - s s - * 9 e M } X.mXmXmXmXmXmXmXmXmXmXmXmXmXmXmXmXmX",
"mXmXmXmXmXmXmXmXmXmXmXmXmXmXZ...r + * [ z # X 9 B.0.- X = } z O + r X.Z.mXmXmXmXmXmXmXmXmXmXmXmXmXmX",
"mXmXmXmXmXmXmX[.mXmXmXmXn.7.e a } # O <.7.| c = ; 7 = } | 7.{ o - } 1 r z.@.mXmXmXmX .mXmXmXmXmXmXmX",
"mXmXmXmXmXmX[.XXmXmXmX..d O   1 :.= + | -   - c f f c *   2 } O r | 1 X @ z ..mXmX@XXXmXmXmXmXmXmXmX",
"mXmXmXmXmXmXO.3X6Xu c ; r ..i z r ; r z + O o : v x ; o o + } 1 ; r z z | 1 ; m S 6X>X[.mXmXmXmXmXmX",
"mXmXmXmXmXmX|.qXgXb +   2 c l d = 2 o | a + + ; l a - + + c }   r = d l c ; X + K kX7X{.mXmXmXmXmXmX",
"mXmXmXmXmX[.%X=XbXO.w t + = : : = r o o ; z 1 ; c z - 1 4 - o O a * e ; = + t w  XlX*X%X[.mXmXmXmXmX",
"mXmXmXmXmX X}.K gXpXN :.r O . - * z } t } 9 ; ; [ [ ; = w } = } r * * . + r <.} gX0XM  X XmXmXmXmXmX",
"mXmXmXmX[.%Xo.a &XkXw 2 O O a ,X1XM r XX8X#.X.@.n.@..X#.O.sX@.2 #.4X-X1 o + 2 u lX@.d Y  XmXmXmXmXmX",
"mXmXmXmXO.|.u = M 7XO.o o e c.dXbXaXi m sXn.<XcXxXxXcX<Xn.sXz i gXbXuXz.7 . o {.3Xi = u |.P mXmXmXmX",
"mXmXmX[.XX1X1X2X,X6X9XS @ o.4XX.-XX..X+.z.-Xn.fXcXxXdXc.-X..@.@.X.-X@.4XM # P 7X1X:X,X@X>XXX[.mXmXmX",
"mXmXmXC Z C A S S A S C * M 3XO.1 ..<X.Xl o.e c X...l i o.l ;X,XL 1 @.,Xz # Z S A A S A C Z C mXmXmX",
"mXmXmXmX% $ $ 6 $ $ % * p l l l c z z c l c a l s x s l l l c z l l l l f 0 # % @ 6 6 $ $ % mXmXmXmX",
"mXmXmXmX|.%XG 7 J K .X0 E v -.<.7.x.7.7.9.E > %.%.%.) > E >.7.7.h.7.<.-.v ( p *XG J 7 G %X{.mXmXmXmX",
"mXmXmXmX%X=X` }.I +.>XT e.R 4.T.eXeXrXY.k.) < e.u.u.e.< ) w.T.eXeXeXL.>.v e.Q 3XP U $X+.3XoXmXmXmXmX",
"mXmXmXmX1X2XO.+.P %X3XW r.;.M.U.rXrXrX~.F.r.< u.y.g.r.< 5.A.Y.rXrXeXK.N.^ r.^ qXY +.+.O.7X=XmXmXmXmX",
"mXmXmXmX5X3XP G J &X7XW r.0.U.L.tXtXyX~.R.y.T s.F.F.g.T u.R.!.tXtXtXV.K.6.e.^ uX}.P G I 0X1XmXmXmXmX",
"mXmXmXmX4X5XI I U *X8XR 3.v.U.k.E.E.E.N.rXy.W G.H.H.G.W y.R.N.E.N.N.l.U.0.%.( dX|.I I I 0X2XmXmXmXmX",
"mXmXmXmX4X6XI Y U *X8X2.y.q.Y.j.k.k.M.A.R.y.%.!././.I.%.y.R.N.k.j.l.l.U.0.u.4.pX XU P I qX2XmXmXmXmX",
"mXmXmXmX5X0X` J ` ;X8X0.D.w.V.Y.eXY.rX~.G.y.2.~././.~.2.y.S.R.rXU.U.T.m.>.D.m.pX X' H #X0X1XmXmXmXmX",
"mXmXmXmX4X0Xb.H b.;XqXv.F.;.-.4.4.4.4.4.5.y.0.^././.^.0.u.2.4.4.>.,.,.~ -.A.v.pX%X` H $XiX1XmXmXmXmX",
"mXmXmXmX5XwXb.H ` ;XsXx.G.D.s.H.H.H.J.H.H.D.w.^./.(.^.w.s.H.H.H.F.D.s.s.v.G.c.dX%X' J #X0X1XmXmXmXmX",
"mXmXmXmX4X0Xb.H b.;XuXC.~.p.&.i.g.i.f.i.i.f.q.^.(./.^.q.f.p.i.p.i.s.8.&.8.Y.C.hX%X' H b.iX2XmXmXmXmX",
"mXmXmXmX5XqXb.G U ;XuXC.I.p.[ *.g.J.H.=.&.d.q.).(.(.(.w.d.&.=.F.F.g.&.4 p.P.C.jX%XU G #XgX1XmXmXmXmX",
"mXmXmXmX5XpXb.J b.;XuXv.G.a.&.3.J.J.J.t.*._.>.^.(.(./.2.d.=.t.J.F.J.%.[ p.S.c.jX.X' J #XgX1XmXmXmXmX",
"mXmXmXmX8XqX#XH ` ;XuXB.I.f.*.u.J.H.J.y.=.W.w.^.(.(.^.9.W.=.y.H.H.H.r.$.p.P.V.jX%X_ H b.pX1XmXmXmXmX",
"mXmXmXmX5XuXb.H _ =XuXB.W.a.$.=.Q.'.Q.g.=.W.9.(.(.).).9.W.=.g.Q.Q.W.=.E a.P.L.jX%X_ ] #XpX1XmXmXmXmX",
"mXmXmXmXwXqXb.' ' ;XuXx.S.p.$.f.`.`.`.d.=._.>.^.(.(./.;.d.*.f.`.yX`.s.4 p.D.B.jX%XU ' #XgX1XmXmXmXmX",
"mXmXmXmX5XqX` P I *X8Xh.D.p.$.=.Q.Q.Q.g.=.d.>.!.^./.!.%.d.*.i.Q.Q.Q.&.E 8.m.c.jX|.I P b.pX4XmXmXmXmX",
"mXmXmXmX5X0X` J L *X0Xv.D.p.W *.y.3.s.u.%.d.<.!.(.^.!.:.f.:.3.t.*.t.%.j 8.A.V.jX|.H J #XqX5XmXmXmXmX",
"mXmXmXmX5X0X$X;X}.&X0Xv.S.8.v 3.A.u.F.u.$.f.:.I./.!.I.;.s.$.u.A.k.N.3.4 8.A.m.hX}.}.;X%XiX2XmXmXmXmX",
"mXmXmXmX5X7XP K K %XpXh.v.8.4 E M.k.M.;.v s.-.I.!.~.P.-.p.x ^ k.k.k.R 4 6.v.c.jX}.P K Y qX2XmXmXmXmX",
"mXmXmXmX7X0XI G J *XpXj.M.[ N o.h.c.x.h.} 9.,.I.P.!.L.,.6.} <.c.h.h.o.m B M.v.jX|.J u _ pX2XmXmXmXmX",
"mXmXmXmX5X0XJ e J oXuXj.M.v p k n k n n s :.,.L.P.I.T.,.:.g k n n n j 7 [ M.v.hX|.J 7 I iX2XmXmXmXmX",
"mXmXmXmX7X6X:X,XoX XqXj.M.$.l z.x.x.v.x.c :.~ L.I.I.K.B :.c x.7.x.x.x.l { u.j.hX[.=X2X:XpX1XmXmXmXmX",
"mXmXmXmX4X5X[.@XOX.XqX/ 4.:.c g , , , g c 6.B L.P.P.L.B >.c g , , , p l :.4.h.qXO.XXXXOXqX,XmXmXmXmX",
"mXmXmXmX4X:Xy Z y {.9X/ q.:.c j > 3 > j v 8.B C.I.R.L.B 8.B j > < > k N :.5.5.qXS C A C 5X2XmXmXmXmX",
"mXmXmXmX:X7X6XpX6X{.>X^ u.:.B j > 3 > j B 9.B L.P.P.L.B w.B k > 3 > k B >.k./ 3X{.wXgX6X9X=XmXmXmXmX",
"mXmXmXD  X2XgXvXiXoX>XL 4.6.{ V ~ >.~ N -.8.v K.P.P.B.B 8.B N ~ >.~ V -.6.4.o.3XXXgXvXiX:X XmXmXmXmX",
"mXmXF O.O.{.oXXX@XXXXX{.V ;.B x.z.z.z.x.B >.n v.S.S.v.n >.B x.x.z.z.x.B $.M {.XX@X@X+X X{.[.O.F mXmX",
"mXmXmX& % y y y C Z y e E x x -.R ! ( / x ~ j 0.D.D.0.j -.n ~ ! ( ( ~ x x ^ t Z A A A y 8 % % mXmXmX",
"mXmXmXmXD D [.+X1X,X[.k 1.s h j h h h j j B k 0.D.A.v.s v j k h h h k h s 1.k XX1X1X+XO.D D mXmXmXmX",
"mXmXmXmX[.{.9XxXbXnX8Xp W v -.,.,.,.,.,.~ B > 2.q.u.2.p ~ ~ ,.,.-.,.-.-.v W b dXbXbXzX7X{.OXmXmXmXmX",
"mXmXmXmX[.[.0XcXbXnXuX: T T ^ ^ / 5./ ( ! T < 5.5.e.3.< T ! ^ 1.1./ ^ ^ T 5 b jXbXbXvX7X[.OXmXmXmXmX",
"mXmXmXmXD S XXwXgXgX+X: T T Q Q / / / / ( T q R T T R q Q Q ( / / / ( Q T T 7 6XkXkXgX=XP ].mXmXmXmX",
"mXmXmXmXmXmXmXmXmXmXmXmXmXmXmXmXmXmXmXmXmXmXmXmXmXmXmXmXmXmXmXmXmXmXmXmXmXmXmXmXmXmXmXmXmXmXmXmXmXmX",
"mXmXmXmXmXmXmXmXmXmXmXmXmXmXmXmXmXmXmXmXmXmXmXmXmXmXmXmXmXmXmXmXmXmXmXmXmXmXmXmXmXmXmXmXmXmXmXmXmXmX"
};
