/* XPM */
static char *result[] = {
/* columns rows colors chars-per-pixel */
"50 50 237 2 ",
"   c #4A2921",
".  c #532D22",
"X  c #582E20",
"o  c #5B3325",
"O  c #5C382A",
"+  c #5B3839",
"@  c #6A3D2C",
"#  c #653928",
"$  c #743C2A",
"%  c #683937",
"&  c #743D37",
"*  c #48261F",
"=  c #6C412C",
"-  c #74432D",
";  c #7A472D",
":  c #6D4233",
">  c #734433",
",  c #794837",
"<  c #7B5139",
"1  c #6C4B4D",
"2  c #674546",
"3  c #784848",
"4  c #6E4E51",
"5  c #734E51",
"6  c #745353",
"7  c #795656",
"8  c #7C5349",
"9  c #7D5C60",
"0  c #745A62",
"q  c #7A6369",
"w  c #7F6774",
"e  c #5B4240",
"r  c #854A2D",
"t  c #96522D",
"y  c #874B35",
"u  c #954C35",
"i  c #84533B",
"p  c #8B5B3B",
"a  c #885639",
"s  c #9C543B",
"d  c #965B38",
"f  c #904F2A",
"g  c #A25C38",
"h  c #A65B30",
"j  c #9B653A",
"k  c #A9673A",
"l  c #B56A37",
"z  c #B8723B",
"x  c #AB733D",
"c  c #C86930",
"v  c #C5793B",
"b  c #D67D32",
"n  c #834944",
"m  c #884A4B",
"M  c #8C5D43",
"N  c #875747",
"B  c #844D54",
"V  c #8B4C53",
"C  c #914F55",
"Z  c #8C545B",
"A  c #8D5A5D",
"S  c #855557",
"D  c #905759",
"F  c #91534A",
"G  c #8E624B",
"H  c #966646",
"J  c #8A625A",
"K  c #966D57",
"L  c #9D755C",
"P  c #A96B42",
"I  c #A46D46",
"U  c #A87346",
"Y  c #BC7543",
"T  c #B97A44",
"R  c #AF7352",
"E  c #835D61",
"W  c #8C5C62",
"Q  c #915B61",
"!  c #846263",
"~  c #8C6265",
"^  c #8C6469",
"/  c #8C6A6C",
"(  c #85686B",
")  c #9A6A64",
"_  c #91656C",
"`  c #936B6D",
"'  c #976864",
"]  c #9C7667",
"[  c #8C6E74",
"{  c #826A77",
"}  c #936E73",
"|  c #8D7275",
" . c #93737A",
".. c #957A7B",
"X. c #9A7A7D",
"o. c #967377",
"O. c #A2736D",
"+. c #A37B65",
"@. c #A37774",
"#. c #C37D48",
"$. c #C3843D",
"%. c #C88A3D",
"&. c #D78838",
"*. c #C9923E",
"=. c #D8983D",
"-. c #E59636",
";. c #ECAD3F",
":. c #DCAC3D",
">. c #B9834A",
",. c #BE8953",
"<. c #B18E74",
"1. c #9E837C",
"2. c #C48443",
"3. c #C58B43",
"4. c #CB8B43",
"5. c #C98948",
"6. c #D18D45",
"7. c #CC9244",
"8. c #CC9A42",
"9. c #CB944B",
"0. c #CD9A4B",
"q. c #C69347",
"w. c #D39C43",
"e. c #D39C4C",
"r. c #D79845",
"t. c #C28952",
"y. c #CD9B53",
"u. c #C99555",
"i. c #D39C54",
"p. c #D29857",
"a. c #D08A50",
"s. c #F59C4B",
"d. c #D5A343",
"f. c #DCA544",
"g. c #D3A14C",
"h. c #DBA44B",
"j. c #DCAC4B",
"k. c #DAAA47",
"l. c #DDB24A",
"z. c #DEB849",
"x. c #CCA359",
"c. c #DBA454",
"v. c #D7A858",
"b. c #DBB35A",
"n. c #DCB556",
"m. c #E4AA46",
"M. c #E5B54D",
"N. c #E4BA4B",
"B. c #EAB94A",
"V. c #E2AC56",
"C. c #E7B856",
"Z. c #F8B254",
"A. c #CE9E62",
"S. c #CDA364",
"D. c #D5A862",
"F. c #DBB967",
"G. c #D8B476",
"H. c #CAA672",
"J. c #E9AD66",
"K. c #E8B769",
"L. c #E5B774",
"P. c #F2BD6B",
"I. c #E5C24B",
"U. c #E8C74D",
"Y. c #F2C24C",
"T. c #E9C456",
"R. c #F8C757",
"E. c #F6D65C",
"W. c #E5D158",
"Q. c #DDC46A",
"!. c #EACC65",
"~. c #E6C967",
"^. c #F8CB69",
"/. c #EDD466",
"(. c #F4D569",
"). c #F6D767",
"_. c #E9C876",
"`. c #F5C976",
"'. c #FBDB7B",
"]. c #F6D876",
"[. c #EED87E",
"{. c #FFEB65",
"}. c #FCE66A",
"|. c #FEEC7A",
" X c #F9E677",
".X c #DFC65A",
"XX c #967A82",
"oX c #9B7D84",
"OX c #9A7F88",
"+X c #A27D82",
"@X c #9E8286",
"#X c #9E828C",
"$X c #9E8890",
"%X c #A2858A",
"&X c #A8898A",
"*X c #AE918E",
"=X c #B29383",
"-X c #A48C94",
";X c #A98F96",
":X c #AD9293",
">X c #AB939B",
",X c #A69099",
"<X c #B09596",
"1X c #AD98A2",
"2X c #B29DA7",
"3X c #B6A2AB",
"4X c #B9A198",
"5X c #CBAF8B",
"6X c #E8CB85",
"7X c #F3DB89",
"8X c #E8D995",
"9X c #E8D48B",
"0X c #FAE786",
"qX c #FEEE9B",
"wX c #F5E596",
"eX c #FBF29E",
"rX c #FFF295",
"tX c #F6EA8D",
"yX c #EAD8AB",
"uX c #F9EBA4",
"iX c #FCF2A2",
"pX c #FCF4AC",
"aX c #FAF6B4",
"sX c #FDF9B3",
"dX c #FFF3BC",
"fX c #FDFCBB",
"gX c #F7F2BD",
"hX c #EBEAB2",
"jX c #DBC78D",
"kX c #FDFCC1",
"lX c #FFF6C8",
"zX c #FFFAD8",
"xX c #E9EFCA",
"cX c #FDFAE1",
"vX c #EEF6EB",
"bX c #DCEDD7",
"nX c None",
/* pixels */
"nXnXnXnXnXnXnXnXnXnXnXnXnXnXnXnXnXnXnXnXnXnXnXnXnXnXnXnXnXnXnXnXnXnXnXnXnXnXnXnXnXnXnXnXnXnXnXnXnXnX",
"nXnXnXnXnXnXnXnXnXnXnXnXnXnXnXnXnXnXnXnXnXnXnXnXnXnXnXnXnXnXnXnXnXnXnXnXnXnXnXnXnXnXnXnXnXnXnXnXnXnX",
"nXnXnXnXnXnXnXnXnXnXnXnXnXnXnXnXnXnXnXnXnX1.L K G G K ] ] nXnXnXnXnXnXnXnXnXnXnXnXnXnXnXnXnXnXnXnXnX",
"nXnXnXnXnXnXnXnXnXnXnXnXnXnXnXnX+.K G i > @ O @ y , @ # : , N N K nXnXnXnXnXnXnXnXnXnXnXnXnXnXnXnXnX",
"nXnXnXnXnXnXnXnXnXnXnXnXnXnXL N : . - G > O   , I H #   = < i O O > G ] nXnXnXnXnXnXnXnXnXnXnXnXnXnX",
"nXnXnXnXnXnX| nXnXnXnXnXL < = i < . - H p G < @ > & : i G H H o O < < - G +.nXnXnXnX| / nXnXnXnXnXnX",
"nXnXnXnXnXnXo.$XnXnXK N # * @ i M o - H . . - i N , p # * = p # = H , o   > H nXnXnXXX/ nXnXnXnXnXnX",
"nXnXnXnXnX! X.$XnXM - - G < < i : , < < o o O ; j y - . o = p < ; < p < H p = a G [ -X/ o.nXnXnXnXnX",
"nXnXnXnXnX^ oX,X8 % * @ a i i - < O = U ; # - r p a - $ # a j O , < a p d a O . ; ` 2X` ^ nXnXnXnXnX",
"nXnXnXnX/ ^ } 2X/ : < # = - i $ p = # $ f j r d I k ; j j r # - p f f a r ; > p < :X-X/ _ nXnXnXnXnX",
"nXnXnXnX` W 8 #X,XN H < = X $ r d x H U U j k k 8.,.h j j >.j x x t t $ $ p x x ] 3X] S ` o.nXnXnXnX",
"nXnXnXo._ 7 < ! 1X6 - @ O , ,.jXH.U ,.9X9X9.F.F.~.K.F.x.S.8XG.z >.6X6Xu.f ; j ; <.4XH i ~ ` nXnXnXnX",
"nXnXnX( ^ 3 @ < X.` # o ; >.6XfXsXG.l K.wXJ.eXfXfXsXfX].F.wXe.#.8XfXsX/.q.f ; j 5X<.; ; N ` ! nXnXnX",
"nXnX( [  .| .. .@X-X! : x 6XL.K._.C.G.i._.K.^.sXfXfXqXP._.V.D.L.J._.K.6XF.h H =X4X=X1.1...X.} ( nXnX",
"nX6 4 1 1 1 5 5 5 6 7 & x G.G.z #.L.6Xp.6.v.&.m.P.C.m.6.V.r._.6XJ.b p.6Xv.l I R K K J J 6 1 5 1 nXnX",
"nXnXq : + + % % O 2 # r U u.y.i.c.c.c.V.V.V.V.C.Z.B.C.C.C.P.Z.C.C.C.V.V.i.#.g u i & , @ + % 2 nXnXnX",
"nXnXnX_ ^ 3 & m 3 o.& ; ,.6XwXaXsXsXaXaXsXsXaXsXsXsXsXsXsXfXsXsXfXsXpXwX_.t.t R <.F F y S o._ nXnXnX",
"nXnXnXo.} W W Z S +X3 r x U S._.wXsXfXkXkXkXkXkXkXkXkXkXkXkXkXkXpXtX/..X7.%.s R =XD ) Q Q +X` nXnXnX",
"nXnXnXXXXXZ W E A %X& u k d x.F.Q._.[.wXuXsXkXfXfXkXkXfXpXuXrX X/.Q.~.c.z %.t ) =XA ' ^ W @Xo.nXnXnX",
"nXnXnXOXXXB 5 B W -X3 t k d S.D.Q.Q.C.r.&.(.fXkXkXkXkXiXY.;.T.~._._.F.A.l $.u ) *XS B B A -XX.nXnXnX",
"nXnXnX@XXXV Z Z W -X& u g g S.t.Q.F.F.r.b E.aXkXkXkXkXqXB.-.M.F.~.F.p.D.l z u ) *XS Z Z A -XXXnXnXnX",
"nXnXnX@XOXV B W ! -X& d x P S.Y p.b.v.j.&.).aXkXkXkXkXeXZ.=.n.b.D.a.#.S.l 2.u ) *XA A B W -X..nXnXnX",
"nXnXnX@XoXQ m Z ~ -X3 d >.P A.Y #.a.p.v.r.}.aXgXgXkXkXqXT.f.b.a.#.#.t.A.l 9.u ) *X~ V V ^ -X..nXnXnX",
"nXnXnX@XOXQ V D ~ -Xn H >.s ,.x.S.D.G.n.m. XaXlXkXkXkXeX/.f.F.F.D.S.A.T k u.s ) *XA C C ^ -X..nXnXnX",
"nXnXnX@XoXQ m Z ^ -Xn H ,.>.T T Y >.t.g.v. XaXkXkXkXkXuX/.k.q.,.T Y Y >.q.u.s ) *XW C V ^ -X..nXnXnX",
"nXnXnX#X@XW V Z ^ :Xn I x.3.0.g.7.0.0.g.n. XaXkXkXkXkXeX/.g.9.9.7.7.g.9.u.x.g O.:XQ C V ^ -X..nXnXnX",
"nXnXnX@XOXZ 3 Z ^ :Xm U x.3.$.*.7.*.*.z.N.|.aXgXkXgXkXiX/.j.d.*.3.4.%.$.9.D.s O.*XQ V B _ >X..nXnXnX",
"nXnXnX#XOXQ m Z ^ >Xm U x.3.*.w.c.j.%.z.T.|.aXlXgXkXkXiX(.l.*.%.h.e.8.*.7.v.H O.<XQ C V _ ,X..nXnXnX",
"nXnXnXOXOXQ C C ^ <Xm I x.q.7.n.c.n.w.N.M. XpXlXkXuXhXeX/.k.8.e.x.c.e.8.9.v.g @.*XJ C C _ ,X..nXnXnX",
"nXnXnX-XOX_ C C ~ :Xm U x.8.w.k.l.z.d.I.N. X7XwXuXuX9X0X!.k.d.w.l.d.e.*.0.v.F O.*XA C C _ ,X..nXnXnX",
"nXnXnX-XOXW Z C ~ >Xn P x.8.8.d..X/.k.I.M. X7X7X7X7X7X[.~.d.w.l.~.n.*.8.0.x.s O.:XZ D D _ ;X..nXnXnX",
"nXnXnXOXOXZ Z Z ~ ;Xi x x.*.8.*..XW.:.I.m. X].0XtX7X8X8XT.d.d.k..Xk.$.7.7.y.g O.*XZ Z Z ^ ;X@XnXnXnX",
"nXnXnX%XOXQ B V ~ >Xn I x.7.w.*.7.M.:.I.B.).Z.7X0X8XxXgXT.g.d.w.w.v 7.4.7.x.s O.:XZ V V _ ,XoXnXnXnX",
"nXnXnX%XOXW ` W ~ <Xm P i.%.e.n.g.T.f.I.C.).s.^.|.lXvXhX~.h.d.h.h.e.v.4.4.y.s O.*XZ ` } W ,XX.nXnXnX",
"nXnXnX%XXXA S 7 W <XF P 9.$.9.b.V.C.h.I.C.).s.R.tXcXbX8X!.k.d.e.v.v.i.2.4.u.u O.*XB S S E ;XX.nXnXnX",
"nXnXnX%XoXB 3 B ~ <XF P y.2.u.x.D.v.n.N.T.).s.R. XbXyX/.!.j.g.p.p.p.u.>.2.a.s o.:XS 8 3 W ;XX.nXnXnX",
"nXnXnX@XoXV & V W <Xm P i.$.z e.e.c.m.N.C.).s.Z.R.wX X X!.m.w.0.9.5.2.z 5.u.u O.:XB n 3 W -XXXnXnXnX",
"nXnXnXoXOX} o.} E <XF k 9.4.y.c.e.&.m.U.B.).P.^.). X).'.!.j.l.6.5.a.u.4.3.5.s ) &XW o. . .-XX.nXnXnX",
"nXnXnX@XXXq [ { ! <Xm k 5.%.4.c b &.m.U.C. X]. X|.0X X X!.M.l.&.c c l 4.$.T u ) &X7 | ( ( -XX.nXnXnX",
"nXnXnX+X| 2 1 2 7 *Xm k 9.%.7.b &.&.m.U.N.(.^.'.].'.'.0X!.l.j.%.v c c 4.$.5.u ~ %X2 4 1 4 %XX.nXnXnX",
"nXnXnXXXOXXX$XOXW +Xy g a.%.7.6.j.M.M.U.k.(.'.'.'.^.`.].T.f.z.h.h.4.2.3.#.#.y A @.( -X#XXX+XX.nXnXnX",
"nXnX( [ XX,X1X$X[ @.S g 2.3.9.v.n.C.T.N.m./.6X`.P.`.`.`.C.m.k.n.v.v.y.$.$.T y ' oX .1X1XXX ./ nXnXnX",
"nX7 9 E E ( [ [ [ / ` G Y v 7.g.r.r.:.m.:./.`.P.P.P.P.7XT.=.w.7.%.6.9.#.z k A ` [ [ [ [ ( ! E 9 nXnX",
"nXnXe + 2 2 2 1 1 5 % d z z v $.%.r.M.M.-.B.J.J.J.L.L.^.B.=.l.w.#.v v l l Y & 3 5 5 1 1 2 e + 1 nXnX",
"nXnXnX0 6 E [ XX| [ & u l z q.g.j.M.N.m.-.Y.E.E.^.).^.R.;.;.m.m.e.e.q.T k l $ 7 | XX .( 0 7 0 nXnXnX",
"nXnXnXq E oX1X2X2X>X3 r k T q.j.N.B.B.R.E.{.{.{.{.{.{.{.E.E.Y.B.m.d.9.2.l h $ W 2X2X2X,X} 9 { nXnXnX",
"nXnXnXw 9 OX2X3X3X1X3 $ h l 9.b.!.).}.}.{.{.{.{.{.{.{.{.{.{.|.}.(.K.p.#.l u % ^ 3X2X2X>X} 9 w nXnXnX",
"nXnXq 0 7 | $X$X,X$X1 # a 5XyXuXrX0X0X|.|.}. X X|.|.|.|.|.|.|.0XrXuXuXyX<.; % ! 1X1X1X-X/ 9 q nXnXnX",
"nXnXnXnXnXnXnXnXnXnXnXnXnXnXzXzXkXdXaXuXiXqXqXqXqXqXqXqXqXiXqXuXaXdXzXcXnXnXnXnXnXnXnXnXnXnXnXnXnXnX",
"nXnXnXnXnXnXnXnXnXnXnXnXnXnXnXnXcXzXzXlXlXlXdXdXdXdXdXdXdXlXlXlXlXzXcXnXnXnXnXnXnXnXnXnXnXnXnXnXnXnX"
};
