/* XPM */
static char *result[] = {
/* columns rows colors chars-per-pixel */
"50 50 39 1 ",
"  c #253E14",
". c #264214",
"X c #2B4516",
"o c #2D4917",
"O c #2C4718",
"+ c #2E4A18",
"@ c #304717",
"# c #314B17",
"$ c #304718",
"% c #324D19",
"& c #355217",
"* c #35521A",
"= c #3A551C",
"- c #37581C",
"; c #3C5B1D",
": c #3E611E",
"> c #3A5520",
", c #3E5B20",
"< c #3F6221",
"1 c #425D1E",
"2 c #43621F",
"3 c #49651F",
"4 c #44691F",
"5 c #4A681F",
"6 c #425E21",
"7 c #446321",
"8 c #496621",
"9 c #466A22",
"0 c #4C6B23",
"q c #516E23",
"w c #4E7124",
"e c #537225",
"r c #597525",
"t c #547926",
"y c #5A7A27",
"u c #567728",
"i c #597729",
"p c #567929",
"a c #5C7B28",
/* pixels */
";8a0==701;u1@*;X*0*%07-6#70XX>68;e==6O*&q;70w:*72<",
";0e7%X67*@24*@%.*86*0r0%@=e=O%8qe3q8==*o;;o2y9:;*%",
"-e807o$,=@=7*7**>%> *0r;$-%0;%*+*277+99:0eeue2788;",
"7-*<:1=;7$$$.0+@%=7+;7q5;-X%$OO%++OO;=29*5u099<0e5",
"@$=%;60e81%%78-57%503000=%%$O$**73*9977u333ee579e5",
"q8111X %6=%*r=$1;750rq031=*,%%77300;%,%,8*uqq1%;e3",
"1q81$%q%-+%17@%@q08=;1qqq0%07=8-1e6.%0;-O%we;;#+91",
"=116=186==331=131=@%*68-;$79*30-%7q-1e7-.O*9;1*8e0",
"=%=60q5q5we313qq%$.;8O==*O6+100**#161r+Oo%-:qqq7=;",
"=67e05q502301;16%=%>61q3;77O10e7;78=;6+.*,*:w006**",
"70q15qw2@;a;#q;O+0* 660q%==$*=00;2;:72876<-2y00007",
"01*qw9q=%653;7XX+802;%**X=6%+*7w09:t2*;6O*7<0;10qe",
"0--77*30@=1111*%--=89<*>,8=$22:w1$;t;;;X=*;%%6,-*6",
"+**,*7t5767rq8;:6-.O;ew-$$*73e296X040u870--8=.*+X=",
"XO.*X1u01=#%1=2911%=7r98*X970e0o77-700;-=6+$%%;o%;",
"07++O%;5qq=111e;O%-=0e;8--7&0qe==io6%-00%7%*%0;101",
";0=%+6736%.9&70288*X0u;;43=1q00qq0+**O=07**+%%X@:9",
"q0=++$8.;;-;O00qqw%;02we001q1&@7q**;<*7;2;+O;*XX*:",
"371*,+303=83%*7ee0*;e0-2;@q;11=e1X200e07-w*;011=11",
"99u0099y76..O+100:*-7;+O;=711710++;72*=;;70r3=5117",
";0r50w;;7+70*%0749-;X+,%;7=7%@#=%X;2-%80:e30$*o;73",
"+;e59w4:*=7%370e-9e87**+;47;%XX=$%*7:-u;;0;u933u1q",
"X%5=X72;-0*.:e35::&.+%+,ew<78-18$++;00u979<1eqq;=8",
";.=&17;$X31X-9=%09;7%%-,01O-87;.$-*%3007-921e00+81",
"w--=%q= X;:37e09=*7;050wrq;*%X**#%30o%%%70eeq086%$",
"qe1+X17%*90u03up;$*2qe7w5207=o;;*1,%**%%;ew2q107.@",
"6uq%*>-e8,===152<-201uw:&X%;8q031q% <-+,=;0;===786",
"10e3;% >=OO%*7X.:;9*%507=299u0095q;1;.=0%qq=%X=876",
"q0e6-%%$+++*87%ew97+>qqee7$-;--;0qr36==1X*u5-$*=.%",
"qe06=%-,o*779097;=*=-*;:0;*;.+7a*018++=*o*00;.07*e",
"130qe7%q;;2=7e;.+0203*+:8;8;7qe1%7=0-+:1-;4e>,=-60",
"0ee--$76=52**qq%;r;X70=71*1==;57=0;09722;24208 .;#",
";7;=+O%%8q7%*3516u+O.*09<*;=;1707*;*090;617===77=w",
";13118-X30w2=e0*;7+OO797,6o.88;17<o:7%%*++,>%%7q0e",
"33e7%7-%=2e13w2:-;>.O7;.oX7w8-1q7Xqa5=oXX+X%%%%145",
"=%1=O$%%+*97294w9<-;633;11*;6 ;060713q5=-$==X*;1ee",
"2*++78*%2-909*9t;77*;2e81e;$%%%= $#105q0=+77%=;000",
"000*>O7;0e09%%02$87;88;%%O=%$==6=@#22.=1=XX66%$3r2",
"ey=%%O,00e0;u-::07-;17-$>X%=*=$q0==e0*20=X@01X%1y9",
"y5;7%>*;5q0$0uo9;;0;Xw*=%7787=Oqq15q0285=$%70=;10y",
"y3=;16*1e0e00qX07+3q27-$@33=;**1r0w00r1%5=:9*&;;;9",
"e0w0q11r2*%08=o1;X,;<-%o&eq0373qr0*@X11q8620+=8-%9",
"001q=811=;*e;+100qq2:wO#eq1@;;6q7;@=X=q76;9w;5q1O9",
"w;X%@*q=0350#+7301;7*990e10316%1=7qq=6*o73:weeq=*;",
"-*-70-71*=-;o%;2&o-7:80e%=6=10 =,*:602;0;;%82qe290",
"$;>%;:1=@.X%+%;7-*w22r1e==;q6q#1Xo;195e=X;*%#7:44:",
"8*+60w97-X76+$%779u;70;eewqq=33e:;00257%*07X#1w0:-",
"+%%60;%707,%%$-;5we0<0;*e00%-20ww92e*0037*%%-1087w",
"-78qq;#;=@o.*=;==2;-=200r50=0+-:*ee;*05er#+$-,*.O*",
"e07uqq1&oo*;**02.o+*0ee55537%O,;;wqo=7ee5o-XO$%6::"
};
