/* XPM */
static char *result[] = {
/* columns rows colors chars-per-pixel */
"50 50 200 2 ",
"   c #050504",
".  c #0B0601",
"X  c #070806",
"o  c #0A0905",
"O  c #0C0C0A",
"+  c #140C02",
"@  c #180E02",
"#  c #0F100D",
"$  c #1E1204",
"%  c #12120D",
"&  c #1D160B",
"*  c #151512",
"=  c #171813",
"-  c #1A1B16",
";  c #1D1E19",
":  c #181610",
">  c #211403",
",  c #2C1A05",
"<  c #291D0B",
"1  c #231909",
"2  c #341F0A",
"3  c #221F19",
"4  c #1E2019",
"5  c #3C250A",
"6  c #38270B",
"7  c #2B2415",
"8  c #23231D",
"9  c #27281E",
"0  c #2C271A",
"q  c #332611",
"w  c #3D2D16",
"e  c #392D1B",
"r  c #3D341E",
"t  c #3E3116",
"y  c #252521",
"u  c #272922",
"i  c #2B2B24",
"p  c #2D2D29",
"a  c #342E22",
"s  c #2F312A",
"d  c #2E3026",
"f  c #313126",
"g  c #33342B",
"h  c #3B3629",
"j  c #3A372A",
"k  c #3B3B33",
"l  c #3E3E3A",
"z  c #343531",
"x  c #432A05",
"c  c #41260A",
"v  c #4B2C0B",
"b  c #41290D",
"n  c #57360A",
"m  c #432F15",
"M  c #4B2D11",
"N  c #4C3113",
"B  c #553512",
"V  c #583B14",
"C  c #47320D",
"Z  c #623C0D",
"A  c #603F04",
"S  c #6A3F13",
"D  c #633A11",
"F  c #463C28",
"G  c #433F35",
"H  c #3F4039",
"J  c #4E421B",
"K  c #59451D",
"L  c #514011",
"P  c #6B4608",
"I  c #76490A",
"U  c #72520F",
"Y  c #735517",
"T  c #644919",
"R  c #4A4025",
"E  c #4B4029",
"W  c #54462A",
"Q  c #584928",
"!  c #424336",
"~  c #43443B",
"^  c #4C4B3D",
"/  c #48463E",
"(  c #534A33",
")  c #584E38",
"_  c #615434",
"`  c #685C35",
"'  c #69582F",
"]  c #75663C",
"[  c #464642",
"{  c #4B4B44",
"}  c #4C4C4A",
"|  c #474841",
" . c #504F43",
".. c #4E5043",
"X. c #535345",
"o. c #5B5B44",
"O. c #54544B",
"+. c #5D5B4D",
"@. c #56584E",
"#. c #565651",
"$. c #5C5B51",
"%. c #5E5E58",
"&. c #615E4E",
"*. c #615E51",
"=. c #605F59",
"-. c #5E6056",
";. c #646145",
":. c #60614C",
">. c #6C6547",
",. c #7D714E",
"<. c #636253",
"1. c #6A6756",
"2. c #6C6A55",
"3. c #646459",
"4. c #68675B",
"5. c #6B6B5B",
"6. c #67695E",
"7. c #716F57",
"8. c #706E5B",
"9. c #6F715B",
"0. c #737357",
"q. c #75735C",
"w. c #79775D",
"e. c #7B7A5C",
"r. c #726447",
"t. c #6B6B64",
"y. c #747364",
"u. c #7B7A64",
"i. c #74736A",
"p. c #7D7B6A",
"a. c #7A7A71",
"s. c #A83E06",
"d. c #90590B",
"f. c #AE5209",
"g. c #9C6406",
"h. c #986511",
"j. c #A46C04",
"k. c #AA6A08",
"l. c #BE670C",
"z. c #B67803",
"x. c #A56510",
"c. c #BA7815",
"v. c #C1640C",
"b. c #87784B",
"n. c #817C5E",
"m. c #877B52",
"M. c #827E64",
"N. c #817F6B",
"B. c #C88507",
"V. c #D18A03",
"C. c #DB9303",
"Z. c #CA8A11",
"A. c #E69B02",
"S. c #EEA001",
"D. c #FEAB01",
"F. c #F3A202",
"G. c #9E8D5C",
"H. c #858364",
"J. c #888766",
"K. c #8A8967",
"L. c #84826D",
"P. c #8A866C",
"I. c #8B896C",
"U. c #948E6C",
"Y. c #978B61",
"T. c #9D9269",
"R. c #848472",
"E. c #898772",
"W. c #8D8B75",
"Q. c #84847A",
"!. c #8A8A7D",
"~. c #878974",
"^. c #918E76",
"/. c #908F78",
"(. c #8E9076",
"). c #929173",
"_. c #94947A",
"`. c #9C9B7D",
"'. c #999879",
"]. c #A09671",
"[. c #A6A17F",
"{. c #8C8D84",
"}. c #8F9085",
"|. c #949484",
" X c #9B9C83",
".X c #94958A",
"XX c #98998B",
"oX c #9E9F92",
"OX c #A3A183",
"+X c #A4A48A",
"@X c #A9A78B",
"#X c #AAA98D",
"$X c #AAAB90",
"%X c #ACAD9A",
"&X c #A1A29A",
"*X c #B7B8A7",
"=X c #C0C1AC",
"-X c #C5C7B5",
";X c #C9CABF",
":X c None",
/* pixels */
":X:X:X:X:X:X:X:X:X:X:X:X:X:X:X:X:X:X:X:X:X:X:X:X:X:X:X:X:X:X:X:X:X:X:X:X:X:X:X:X:X:X:X:X:X:X:X:X:X:X",
":X:X:X:X:X:X:X:X:X:X:X:X:X:X:X:X:X:X:X:X:X:X:X:X:X:X:X:X:X:X:X:X:X:X:X:X:X:X:X:X:X:X:X:X:X:X:X:X:X:X",
":X:X:X:X:X:X:X:X:X:X:X:X:X:X:X:X:X:X:X:X:X; i s g z k :X:X:X:X:X:X:X:X:X:X:X:X:X:X:X:X:X:X:X:X:X:X:X",
":X:X:X:X:X:X:X:X:X:X:X:X:X:X:X:X:X:X:Xu k H k g g k H :X:X:X:X:X:X:X:X:X:X:X:X:X:X:X:X:X:X:X:X:X:X:X",
":X:X:X:X:X* O :X:X:X:X:X:X:X:X:X:X- ~ [ z f f g g k H :X:X:X:X:X:X:X:X:X:X:X:X:X:X:X:X:X:X:X:X:X:X:X",
":X:X:X:X:X% ; X :X:X:X:X:X:X:X:X; } z u u i f f f l ~ :X:X:X:X:X:X:X:X:X* * :X:X:X:X:X:X:X:X:X:X:X:X",
":X:X:X:X:XX - O :X:X:X:X:X:X:X; [ u - 4 4 4 8 9 f H ~ O :X:X:X:X:X:X:XX - O :X:X:X:X:X:X:X:X:X:X:X:X",
":X:X:X:X:X* u % :X:X:X:X:X:X* z 4 - - - 4 4 - 4 i H [ X :X:X:X:X:X:X:XO y * :X:X:X:X:X:X:X:X:X:X:X:X",
":X:X:X:X  = 4 # :X:X:X:X:X:Xu y # 4 4 4 = = 4 4 8 k ~ X :X:X:X:X:X:X:XO ; - X :X:X:X:X:X:X:X:X:X:X:X",
":X:X:X:X* u 9 O :X:X:X:X:X# - y @.y.H.e.) 9 = 4 4 z ~ d ~ - :X:X:X:X:X:X* y O :X:X:X:X:X:X:X:X:X:X:X",
":X:X:XX 4 8 4 O :X:X:X:X:X= -.|.(.K.H.J.K.0.d = 4 d ~ / W.p.{ :X:X:X:X:XO ; = :X:X:X:X:X:X:X:X:X:X:X",
":X:X:XX i g z * :X:X:X:X4 Q.+XK.H.).).K.J.J.0.9 = d H / W.W.|.t.- :X:X:X= ; 4 O :X:X:X:X:X:X:X:X:X:X",
":X:X:X* ! ! ~ k g :X:X* Q.+XK.K.).'._.(.).H.H.:.= i H / W.W.~.XXt.# :Xs s y = X :X:X:X* y :X:X:X:X:X",
":X:X:XO k ~ d g ~ p u i -.9.K.U.[.+X Xp.L.).H.H.j 8 k ! W.W.E.E..X[ u u 4 u =   :X:X:X:X..8 :X:X:X:X",
":X:X:XX - 9 d k g 9 8 i 8 u u.'.#X#X$X`.0.i.K.J.;.4 g / ^.W.E.N.~.i.- 9 - - O :X:X:X:X:X6.@.:X:X:X:X",
":X:X:X:XX - u i i 4 9 u u - 2.OX+X#X#X+X).q.u.H.w.d p / /.W.P.y.L.y.- 4 * O :X:X:X:X:X:Xy.~.d :X:X:X",
":X:X:X:X:XX # = = = 4 4 4 - w.+X+X+X+X+X`.K.e.H.e.! 8 { (.W.E.q.p.u.8 % O :X:X:X:X:X:X:XQ. XO.:X:X:X",
":X:X:X:X:X:X:XX O % : - % z (.OX+X+X+XOXOX'.I.H.H.o.4 X.(.W.E.4.u.M.p   :X:X:X:X:X:X:X; oX+Xy.* :X:X",
":X:X:X:X:X:X:X:X:X4 @.! ^ e.'.OXOX[.[.[.OX[.`.).I.q.g +.W.R.W.M.M.u.k :X:X:X:X:X:X:X:Xl *X+XW.8 :X:X",
":X:X:X:X:X:X:X:X:XH oXe.e.H.'.u.( R R W _ ] b.G.T._.p.L.^.G.` F e h h :X:X:X:X:X:X:X:Xt.-X$X`.p :X:X",
":X:X:X:X:X:X:X:X:X[ XXq.e.M.'.F . @ , n P 6 , q Q Y.^.W.m.q 5 A 5 > r :X:X:X:X:X:X:X* &X=X%X Xi :X:X",
":X:X:X:X:X:X:X:X:X} |.0.0.u.T.t @ x z.S.F.V.I x 2 Q U.U.W 5 j.A.j.2 r :X:X:X:X:X:X:X} ;X*X+X(.4 :X:X",
":X:X:X:X:X:X:X:X:X} !.0.0.y.T.m > j.D.D.D.D.B.Z D c r.n.q Z B.D.C.C F :X:X:X:X:X:X:X}.-X%XOXu.% :X:X",
":X:X:X:X:X:X:X:X:X{ W.2.0.y.T.( > j.D.D.D.D.C.U S S F ^ M P V.D.B.m ^ :X:X:X:X:X:X#.*X*X X X@.:X:X:X",
":X:X:X:X:X:X:X:X:X[ !.1.2.7.P.,.% x j.C.A.V.g.Z D S B b B B d.l.P e +.:X:X:X:X:X:X{.*X%X/.W.k :X:X:X",
":X:X:X:X:X:X:X:X:X~ Q.<.1.1.u.P.) > , x v v c M M n v M M c 6 5 q ;.6.:X:X:X:X:X:X!.%X|.(.y.- :X:X:X",
":X:X:X:X:X:X:X:X:X~ N.*.&.<.7.P.P.b.' W W _ &.&.2 c c c 5 , a >.m.M.i.:X:X:X:X:X:Xa.oX~.~.^ :X:X:X:X",
":X:X:X:X:X:X:X:X:X:Xi.&.X.^ &.u.L.L.P.Y.P.M.N.{ > 2 , , , > 3 3.y.p.p.:X:X:X:X#.t..XR.9.9.y :X:X:X:X",
":X:X:X:X:X:X:X:X:X:X6.&.&.+.&.1.N.N.N.p.y.<.i.k @ > $ > $ @ % +.9.p.p.:X:X:Xy.|.oXi.<.j ~ :X:X:X:X:X",
":X:X:X:X:X:X:X:X:X:X$.*.+.+.&.&.1.q.8.3.&.+.a.9 + @ @ @ + @ + { 1.u.p.:X:Xt..X.X}.5.$.* :X:X:X:X:X:X",
":X:X:X:X:X:X:X:X:X:Xk $.3.*.&.+.+.+.&.+.+.&.i.* + + + + @ + . g 4.9.t.:X:Xi..X}.Q.9.~ :X:X:X:X:X:X:X",
":X:X:X:X:X:X:X:X:X:X:X:X~ =.t.4.&.+.+.+.+.*.=.+ + + + + + . . ; 4.5.:X:X:X[ .XQ.5.^ :X:X:X:X:X:X:X:X",
":X:X:X:X:X:X:X:X:X:X:X:X:X:Xz } $.) =.<.*.*.| . . . + . X   :X; X.:X:X:X:X:X{.i.! :X:X:X:X:X:X:X:X:X",
":X:X:X:X:X:X:X:X:X:X:X:X:X:X:X:Xq U a { G { g O % % - i # :X:X:X:X:X:X:X:XG a.$.! :X:X:X:X:X:X:X:X:X",
":X:X:X:X:X:X:X:X:X:X:X:X:X:X:X9 k 3 - 3.k 3 8 F J 0 8 $.s :X:X:X:X:X:X* :X#.$.d :X:X:X:X:X:X:X:X:X:X",
":X:X:X:X:X:X:X:X:X:X:X:X:X:X9 2.u.k y u.6.8 K c.c.h.e *.X.{ :X:X:X:X:Xy - i ; :X:X:X:X:X:X:X:X:X:X:X",
":X:X:X:X:X:X:X:X:X:X:X:X:X:XX.W.*.~  .M.N.f h.v.f.Z.U +.$.3.W B :X:X:Xy 8 O X X :X:X:X:X:X:X:X:X:X:X",
":X:X:X:X:X:X:X:X:X:X:X:X:XV ` ;.[ *.<.N.W.G d.v.s.B.U O.3.Q Y 7 - p 4 p 8 O :X:X:X:X:X:X:X:X:X:X:X:X",
":X:X:X:X:X:X:X:X:X:X:X:X& w L T ( *.1.E.W.O.N k.l.x.w O.1.V < 8 i 9 ; * # :X:X:X:X:X:X:X:X:X:X:X:X:X",
":X:X:X:X:X:X:X:X:X:X:X:X% 8 4 : g *.*.y.E.*.u r V a i { +.& % 9 g 4 - - O :X:X:X:X:X:X:X:X:X:X:X:X:X",
":X:X:X:X:X:X:X:X:X:X:X% u g i y p { } X.&.X.8 y u 8 3 p j p :X* 8 p i * X :X:X:X:X:X:X:X:X:X:X:X:X:X",
":X:X:X:X:X:X:X:X:X:X:X- g j d s g / | X.O.O./ l ../ g k X.y.:X:X* y = X :X:X:X:X:X:X:X:X:X:X:X:X:X:X",
":X:X:X:X:X:X:X:X:X:X:X= 9 i i y %.+.^ ~ k g i ; u i ; W X.y.@.:Xy * X :X:X:X:X:X:X:X:X:X:X:X:X:X:X:X",
":X:X:X:X:X:X:X:X:X:X:XO % = * 8 <.2.:.X.h i :X; 4 i y t K j -.; - O :X:X:X:X:X:X:X:X:X:X:X:X:X:X:X:X",
":X:X:X:X:X:X:X:X:X:X:X:X:XX   = g / X.p m V :X= u y 8 * w q :X# :X:X:X:X:X:X:X:X:X:X:X:X:X:X:X:X:X:X",
":X:X:X:X:X:X:X:X:X:X:X:X:X:X:X:X# = 8 - 8 0 :XO - y * - y y :X:X:X:X:X:X:X:X:X:X:X:X:X:X:X:X:X:X:X:X",
":X:X:X:X:X:X:X:X:X:X:X:X:X:X:XX * - ; 3 u y :X:XO * - 8 u p :X:X:X:X:X:X:X:X:X:X:X:X:X:X:X:X:X:X:X:X",
":X:X:X:X:X:X:X:X:X:X:X:X:X:X:XX * - i i i ; :X  # = 8 p u - X :X:X:X:X:X:X:X:X:X:X:X:X:X:X:X:X:X:X:X",
":X:X:X:X:X:X:X:X:X:X:X:X:X:X:X:XX O * - * X :X:XX O O * O X :X:X:X:X:X:X:X:X:X:X:X:X:X:X:X:X:X:X:X:X",
":X:X:X:X:X:X:X:X:X:X:X:X:X:X:X:X:X:X:X:X:X:X:X:X:X:X:X:X:X:X:X:X:X:X:X:X:X:X:X:X:X:X:X:X:X:X:X:X:X:X"
};
