/* XPM */
static char *result[] = {
/* columns rows colors chars-per-pixel */
"50 50 148 2 ",
"   c black",
".  c #010000",
"X  c #010100",
"o  c #000001",
"O  c #000101",
"+  c #010101",
"@  c #020100",
"#  c #030100",
"$  c #020101",
"%  c #020202",
"&  c #030302",
"*  c #040100",
"=  c #040101",
"-  c #040201",
";  c #050201",
":  c #060201",
">  c #070301",
",  c #080301",
"<  c #090301",
"1  c #090302",
"2  c #090401",
"3  c #0A0401",
"4  c #0B0401",
"5  c #0B0402",
"6  c #0C0502",
"7  c #0D0502",
"8  c #0E0602",
"9  c #0F0602",
"0  c #100602",
"q  c #110702",
"w  c #110703",
"e  c #120702",
"r  c #120703",
"t  c #130802",
"y  c #130803",
"u  c #140803",
"i  c #150803",
"p  c #150903",
"a  c #160903",
"s  c #170903",
"d  c #170A03",
"f  c #180A03",
"g  c #190A03",
"h  c #1A0A03",
"j  c #1A0B03",
"k  c #1B0B03",
"l  c #1C0B03",
"z  c #1D0C03",
"x  c #1E0C03",
"c  c #1C0B04",
"v  c #1D0B04",
"b  c #1C0C04",
"n  c #1D0C04",
"m  c #1E0C04",
"M  c #1F0D04",
"N  c #210D04",
"B  c #210E04",
"V  c #220E04",
"C  c #230E04",
"Z  c #230F04",
"A  c #220E05",
"S  c #230F05",
"D  c #240F05",
"F  c #250F05",
"G  c #260F05",
"H  c #261005",
"J  c #271005",
"K  c #291105",
"L  c #2B1205",
"P  c #291106",
"I  c #2A1106",
"U  c #2E1305",
"Y  c #2D1306",
"T  c #2F1306",
"R  c #311406",
"E  c #321406",
"W  c #351607",
"Q  c #381707",
"!  c #3C1907",
"~  c #3F1A08",
"^  c #441C08",
"/  c #471D09",
"(  c #4C1F09",
")  c #4E2009",
"_  c #51210A",
"`  c #53220A",
"'  c #54220A",
"]  c #55230A",
"[  c #5A250B",
"{  c #5C260B",
"}  c #5D260B",
"|  c #61280B",
" . c #62280B",
".. c #64290C",
"X. c #65290C",
"o. c #662A0C",
"O. c #6A2C0C",
"+. c #6B2C0C",
"@. c #6C2C0D",
"#. c #6F2E0D",
"$. c #712E0D",
"%. c #79310E",
"&. c #7F340F",
"*. c #81350F",
"=. c #88380F",
"-. c #873710",
";. c #883810",
":. c #8A3810",
">. c #8C3910",
",. c #8D3A10",
"<. c #8F3B10",
"1. c #903B10",
"2. c #903B11",
"3. c #913B11",
"4. c #923B11",
"5. c #913C10",
"6. c #933C10",
"7. c #943C11",
"8. c #943D11",
"9. c #953D11",
"0. c #963D11",
"q. c #963E11",
"w. c #973E11",
"e. c #983E11",
"r. c #993F11",
"t. c #9A3F11",
"y. c #9B3F11",
"u. c #9B4011",
"i. c #9D4011",
"p. c #9D4111",
"a. c #9E4111",
"s. c #9F4111",
"d. c #9C4012",
"f. c #9D4012",
"g. c #9F4112",
"h. c #A04112",
"j. c #A04212",
"k. c #A24212",
"l. c #A34312",
"z. c #A44312",
"x. c #A54312",
"c. c #A64412",
"v. c #A74412",
"b. c #A74512",
"n. c #A84512",
"m. c #A94512",
"M. c #AA4612",
"N. c None",
/* pixels */
"N.N.+                                         + N.N.$                                         + N.N.",
"N.+ : c A A A A A A A A A A A A A A A A A A n > + $ - g A A A A A A A A A A A A A A A A A A M 3 + N.",
"+ ; { r.f.d.d.d.d.d.d.d.d.d.d.d.d.d.d.d.d.f.t.X., . ) q.f.d.d.d.d.d.d.d.d.d.d.d.d.d.d.d.d.f.u.$.8   ",
"o f w.n.v.v.v.v.v.v.v.v.v.v.v.v.v.v.v.v.v.v.n.i.B 6 >.m.v.v.v.v.v.v.v.v.v.v.v.v.v.v.v.v.v.v.v.z.R   ",
"  x t.v.c.c.c.c.c.c.c.c.c.c.c.c.c.c.c.c.c.c.c.s.H 0 2.b.c.c.c.c.c.c.c.c.c.c.c.c.c.c.c.c.c.c.c.x.Q   ",
"  z t.v.c.c.c.c.c.c.c.c.c.c.c.c.c.c.c.c.c.c.c.s.H 0 2.b.c.c.c.c.c.c.c.c.c.c.c.c.c.c.c.c.c.c.c.x.Q   ",
"  z t.v.c.c.c.c.c.c.c.c.c.c.c.c.c.c.c.c.c.c.c.s.H 0 2.b.c.c.c.c.c.c.c.c.c.c.c.c.c.c.c.c.c.c.c.x.Q   ",
"  z t.v.c.c.c.c.c.c.c.c.c.c.c.c.c.c.c.c.c.c.c.s.H 0 2.b.c.c.c.c.c.c.c.c.c.c.c.c.c.c.c.c.c.c.c.x.Q   ",
"  z t.v.c.c.c.c.c.c.c.c.c.c.c.c.c.c.c.c.c.c.c.s.H 0 2.b.c.c.c.c.c.c.c.c.c.c.c.c.c.c.c.c.c.c.c.x.Q   ",
"  z t.v.c.c.c.c.c.c.c.c.c.c.c.c.c.c.c.c.c.c.c.s.H 0 2.b.c.c.c.c.c.c.c.c.c.c.c.c.c.c.c.c.c.c.c.x.Q   ",
"  z t.v.c.c.c.c.c.c.c.c.c.c.c.c.c.c.c.c.c.c.c.s.H 0 2.b.c.c.c.c.c.c.c.c.c.c.c.c.c.c.c.c.c.c.c.x.Q   ",
"  z t.v.c.c.c.c.c.c.c.c.c.c.c.c.c.c.c.c.c.c.c.s.H 0 2.b.c.c.c.c.c.c.c.c.c.c.c.c.c.c.c.c.c.c.c.x.Q   ",
"  z t.v.c.c.c.c.c.c.c.c.c.c.c.c.c.c.c.c.c.c.c.s.H 0 2.b.c.c.c.c.c.c.c.c.c.c.c.c.c.c.c.c.c.c.c.x.Q   ",
"  x t.v.c.c.c.c.c.c.c.c.c.c.c.c.c.c.c.c.c.c.c.s.H 0 2.b.c.c.c.c.c.c.c.c.c.c.c.c.c.c.c.c.c.c.c.x.Q   ",
"o s 9.n.v.v.v.v.v.v.v.v.v.v.v.v.v.v.v.v.v.v.n.u.M 6 :.m.v.v.v.v.v.v.v.v.v.v.v.v.v.v.v.v.v.v.b.l.T   ",
"+ = ] 8.r.r.r.r.r.r.r.r.r.r.r.r.r.r.r.r.r.r.0.} :   / 5.r.r.r.r.r.r.r.r.r.r.r.r.r.r.r.r.r.r.w.O.6   ",
"N.+ - p k k k k k k k v n n v k k k k k k k a -     @ y k k k k k k k c n n v l k k k k k k f >   N.",
"N.+ # t g g g g g g t #     @ e g g g g g g h k k k k h g g g g g g p ;     . 0 g g g g g g a :   N.",
"+ # _ 6.e.e.e.e.e.e.6.` # X ( 5.e.e.e.e.e.e.e.e.e.e.e.e.e.e.e.e.e.e.9. .,   ! ,.e.e.e.e.e.e.0.o.3 o ",
"  i 6.m.v.v.v.v.v.v.m.9.a 0 <.m.v.v.v.v.v.v.v.v.v.v.v.v.v.v.v.v.v.v.n.g.G ; &.M.v.v.v.v.v.v.n.k.L   ",
"  k e.v.c.c.c.c.c.c.v.t.n p 9.v.c.c.c.c.c.c.c.c.c.c.c.c.c.c.c.c.c.c.c.k.U 1 -.n.c.c.c.c.c.c.c.z.W   ",
"  k e.v.c.c.c.c.c.c.v.t.b p 9.v.c.c.c.c.c.c.c.c.c.c.c.c.c.c.c.c.c.c.c.k.U 1 -.n.c.c.c.c.c.c.c.z.W   ",
"  k e.v.c.c.c.c.c.c.v.t.b p 9.v.c.c.c.c.c.c.c.c.c.c.c.c.c.c.c.c.c.c.c.k.U 1 -.n.c.c.c.c.c.c.c.z.W   ",
"  k e.v.c.c.c.c.c.c.v.t.b p 9.v.c.c.c.c.c.c.c.c.c.c.c.c.c.c.c.c.c.c.c.k.U 1 -.n.c.c.c.c.c.c.c.z.W   ",
"  k e.v.c.c.c.c.c.c.v.t.b p 9.v.c.c.c.c.c.c.c.c.c.c.c.c.c.c.c.c.c.c.c.k.U 1 -.n.c.c.c.c.c.c.c.z.W   ",
"  k e.v.c.c.c.c.c.c.v.t.b p 9.v.c.c.c.c.c.c.c.c.c.c.c.c.c.c.c.c.c.c.c.k.U 1 -.n.c.c.c.c.c.c.c.z.W   ",
"  k e.v.c.c.c.c.c.c.v.t.b p 9.v.c.c.c.c.c.c.c.c.c.c.c.c.c.c.c.c.c.c.c.k.U 1 -.n.c.c.c.c.c.c.c.z.W   ",
"  k e.v.c.c.c.c.c.c.v.t.b p 9.v.c.c.c.c.c.c.c.c.c.c.c.c.c.c.c.c.c.c.c.k.U 1 -.n.c.c.c.c.c.c.c.z.W   ",
"  k e.v.c.c.c.c.c.c.v.t.b p 9.v.c.c.c.c.c.c.c.c.c.c.c.c.c.c.c.c.c.c.c.k.U 1 -.n.c.c.c.c.c.c.c.z.W   ",
"  k e.v.c.c.c.c.c.c.v.t.n p 9.v.c.c.c.c.c.c.c.c.c.c.c.c.c.c.c.c.c.c.c.k.U 1 -.n.c.c.c.c.c.c.c.z.W   ",
"  a 8.n.v.v.v.v.v.v.n.q.d q 1.n.v.v.v.v.v.v.v.v.v.v.v.v.v.v.v.v.v.v.b.j.J : *.m.v.v.v.v.v.v.v.k.Y   ",
"+ = [ r.i.i.i.i.i.i.r.{ - @ ] e.i.i.i.i.i.i.i.a.a.a.a.p.i.i.i.i.i.i.y.+.4   ^ 9.i.i.i.i.i.i.u.#.7 o ",
"N.+ ; k V N N N N B k ;     - j B N N N N B C D D D D Z B N N N N B n ,     @ s B B N N N B m 2 o N.",
"N.% @ 7 w w w w w w r y u u u r w w w w w w 7 @     . 5 w w w w w w r y u u u r w w w w w w 9 * + N.",
"+ @ ( >.3.2.2.2.2.2.3.4.3.3.4.3.2.2.2.2.2.3.,.` ;   ~ =.3.2.2.2.2.2.3.4.3.3.4.3.3.2.2.2.2.3.<.| 3 O ",
"O a 7.m.b.b.b.b.b.b.b.b.b.b.b.b.b.b.b.b.b.b.m.t.n 5 ;.M.b.b.b.b.b.b.b.b.b.b.b.b.b.b.b.b.b.b.n.k.Y   ",
"  x t.v.c.c.c.c.c.c.c.c.c.c.c.c.c.c.c.c.c.c.c.s.H 0 2.b.c.c.c.c.c.c.c.c.c.c.c.c.c.c.c.c.c.c.c.x.Q   ",
"  z t.v.c.c.c.c.c.c.c.c.c.c.c.c.c.c.c.c.c.c.c.s.H 0 2.b.c.c.c.c.c.c.c.c.c.c.c.c.c.c.c.c.c.c.c.x.Q   ",
"  z t.v.c.c.c.c.c.c.c.c.c.c.c.c.c.c.c.c.c.c.c.s.H 0 2.b.c.c.c.c.c.c.c.c.c.c.c.c.c.c.c.c.c.c.c.x.Q   ",
"  z t.v.c.c.c.c.c.c.c.c.c.c.c.c.c.c.c.c.c.c.c.s.H 0 2.b.c.c.c.c.c.c.c.c.c.c.c.c.c.c.c.c.c.c.c.x.Q   ",
"  z t.v.c.c.c.c.c.c.c.c.c.c.c.c.c.c.c.c.c.c.c.s.H 0 2.b.c.c.c.c.c.c.c.c.c.c.c.c.c.c.c.c.c.c.c.x.Q   ",
"  z t.v.c.c.c.c.c.c.c.c.c.c.c.c.c.c.c.c.c.c.c.s.H 0 2.b.c.c.c.c.c.c.c.c.c.c.c.c.c.c.c.c.c.c.c.x.Q   ",
"  z t.v.c.c.c.c.c.c.c.c.c.c.c.c.c.c.c.c.c.c.c.s.H 0 2.b.c.c.c.c.c.c.c.c.c.c.c.c.c.c.c.c.c.c.c.x.Q   ",
"  z t.v.c.c.c.c.c.c.c.c.c.c.c.c.c.c.c.c.c.c.c.s.H 0 2.b.c.c.c.c.c.c.c.c.c.c.c.c.c.c.c.c.c.c.c.x.Q   ",
"  z t.v.c.c.c.c.c.c.c.c.c.c.c.c.c.c.c.c.c.c.c.s.H 0 2.b.c.c.c.c.c.c.c.c.c.c.c.c.c.c.c.c.c.c.c.x.Q   ",
"  x t.v.c.c.c.c.c.c.c.c.c.c.c.c.c.c.c.c.c.c.c.s.H 0 2.b.c.c.c.c.c.c.c.c.c.c.c.c.c.c.c.c.c.c.c.x.Q   ",
"o g w.n.c.c.c.c.c.c.c.c.c.c.c.c.c.c.c.c.c.c.v.i.B 7 ,.m.c.c.c.c.c.c.c.c.c.c.c.c.c.c.c.c.c.c.v.z.E   ",
"+ : ..a.j.j.j.j.j.j.j.j.j.j.j.j.j.j.j.j.j.j.g.@.2 . ' y.j.j.j.j.j.j.j.j.j.j.j.j.j.j.j.j.j.j.h.%.q   ",
"N.+ < S I I I I I I I I I I I I I I I I I I F 3 O + ; M P P K P P P P P P P I I I I I I I I J 8   & ",
"N.N.+                                         + N.N.+                                           N.N."
};
