/* XPM */
static char *result[] = {
/* columns rows colors chars-per-pixel */
"50 50 58 1 ",
"  c #0F180F",
". c #12160E",
"X c #131711",
"o c #151A13",
"O c #1A1D15",
"+ c #161C18",
"@ c #1C1F19",
"# c #162117",
"$ c #192017",
"% c #172319",
"& c #1D221A",
"* c #1D291F",
"= c #22251D",
"- c #21281F",
"; c #1E2A21",
": c #242721",
"> c #252A23",
", c #292C25",
"< c #252B28",
"1 c #2B2E29",
"2 c #243126",
"3 c #2D3027",
"4 c #263429",
"5 c #2D322A",
"6 c #27392D",
"7 c #2A3A2E",
"8 c #32342D",
"9 c #34382F",
"0 c #2F3330",
"q c #2C3D31",
"w c #343631",
"e c #363A32",
"r c #3B3C34",
"t c #373A38",
"y c #3B3D3B",
"u c #2E4235",
"i c #2F423A",
"p c #324236",
"a c #3B4136",
"s c #354539",
"d c #3C433B",
"f c #36493C",
"g c #3B493E",
"h c #40423E",
"j c #3D3E40",
"k c #3E4442",
"l c #3D4D41",
"z c #375243",
"x c #3D5245",
"c c #3E5649",
"v c #3F5A4B",
"b c #424443",
"n c #414C43",
"m c #454E4A",
"M c #415245",
"N c #425549",
"B c #425A4B",
"V c #425C50",
/* pixels */
"bybbbbbbbbbhyhbbbbbbbbbbjhjjbbbbhhhhhmhyybjbhbbbbb",
"y:,wwrryae8>@,rwr9ew9wt811:+wtrrhrhhrr3=@:<,>8w90y",
"tX@:<18w85,$X:,<,,,,>,>,,:@@,<1w98888-=OXXOOO=3-,y",
"w.Xo@&:<2>=o.o@&$@@@=&&&@@X@@&&:=,=,=@Oo+@@OO$$&&t",
"s---;Oo+OOo $oooooOoOOooo..oooo@OO&Oo#2fllgd9=oo=y",
"NvBBNu*+2uuug7uu775=OO67777767*oo..oouvhdyrr,@27gm",
"bdahdd9$fBBBBhhhdhd8&@cBBBBBNNfsu=$*fhhhrrr8*+fBlb",
"hrrrr91$fhhagfrrrrr8=$ccMhydaaaa9-$uVhrrrre>o5hgab",
"hre88,-O8arrrrrrrrr3=%harrrrrrr3,&#fMarrrr8=o=rrrb",
"he3,-&&o-8rrrrrrer3,=$a9rreree8--O%harrrrr-=o=89rb",
"y-=&oo.@>,,1899998,=o=33,11133-=OO3herer3,-@oO=31y",
"r=o&44>+@====-,3,3=O.$========@@Oo89983-3==o.o$=:y",
"w$7gNBN2o+ooO$%&&&$OoOooOOooO#oo%O=->>>,=$&33&o$@t",
"04MhdMxx2**=@. *$o.*p5*OOOoo=fzgg4OO=@&$O&9a9=.%=t",
"t>59rrrdhhgg8=ogs72%-,983-&#uVcgnh=@...o#67,$Ougyb",
"b,&>83887885-=#gBBN4#O$$=$ uvhaarrr=o7pp%#oo#6ghrb",
"h5O=,:>-,-=&$&pghdhMa3o *sgldarrrr-O8BVvzgzfgBMarb",
"h5o@OO@@OO$O$pharrear1$oelyreae833=.pMggMMMNMhaarb",
"d,.ooooXo..o3hharrere,O$358883,---$o8ararraarrrrrb",
"t*@psdp83&O-33331555==o@>>=:==@=&$o$5arrrrrrrrrrrb",
"t&o=3r91=OO=----=---=O&&o.ooXoo.oo*$,9rrrrrrrrrr8j",
"wo42O==&&o.OO#OOOOOOO.>fuu97=.29upf2@=3838errrr8,r",
"woaa-oo*%*O$*%$OO..$&*gNNxda,#sBNhNx,@==-,38383,=t",
"0@5w-$-zvvhhfhhh5@&xNxNgaare-ofhaeahh>O@========@r",
"0o==@+uNhggaahr8-O-vMarrrrr1$*aarrrrrr=.O.OOOO$$Ot",
"k1##@o2ahraarr93=*pharrrrr9>o>derrrrrr3==oo$Oo.#4b",
"Ncxxna$=8899998=o4Me99rrrr,>o=99w999r3,=O#pd9=$fBm",
"bnnnde-o=,,=--=Oo3933-1383,=o$,,,,1,,==OOpMe5@2NNm",
"hrrra9-oO===&&$oo$$&&===>==Oo@@@&&$&@OOO*gd8=oaNyb",
"hrrr95=o...oooo2u%*&Oo.OOo.&7q%;;-**&O..7ar>@opdrb",
"hre83==.O=-2467MBxga>O.*444xBBvvMhhga5=O=r91@owrrb",
"y88==@O.=,8pgdfdde853& >ddhghgkdararr81=o=1=@.>18j",
"r::=$o@+O&-,,,5,33-=OO%$-5errrrrrr9833,,@O$@@o&>>y",
"woooo>ep2Oo&&====-$o*7cp&=>8889w83-,-====OoXXXXoot",
"kpe7,2afxp2+oOo#.oo=eggn=O&=>,,>====@oO@Oo2fiiuupk",
"mldr9&&9aNxsdfdfp5-&,9rr8OooO@=&==OXOOoo-fNBVVNNNm",
"drrr,@O,39ee999e93,&=-398,&.oo.oXO=1e8,OfNMblxdrrb",
"brr9,@.=,,>=,-,,3-,=..=-,&$$qquu9=>88>$2gdrrrrrrrb",
"h981=@.O@@OOo=-=&$$oo.oO@o%pNlhNBx-->%$pgarrrrr9rb",
"y,:==@&>2>2>-OO&->,2,-23>;4eareeaMa-oo2Maarr99311y",
"w==@o#pvBBBBz2$7MNNxghhhhh9=9rrr9893=.-r55883,===t",
"8oo.o3eaadhdgx53rhdaahrrhr8==9ee33==$.=-3-,===Oo@t",
"t$O=>>,389eeae5&=999999998,@O,1,-=@O$o.OoOO.$$-->d",
"m2->====-,1885-O=-3--3-3,,=OO,,>=O.oo=,--==.&7xBBm",
"b>+@#oo$O$==-=&oo$=$O=O=$&$Oo@@@.-333rarr-=*gBghhb",
"h,**;-----&@$$@.. .oooooooOOo...O-----3e3=.rgaaarb",
"t2xBBvBNBBs*O.O477u747773$.36762oo@Ooo===.=rrrrrej",
"57lghdggdggs-ufccvNvNNBNg-opBBNxfssas9OOo=9rrrrr8y",
"1,rrrrrrrryt-3dyyaadraaa9,&@ryydMMNNxmd1@5yrrrrr8y",
"t0jjbdjkhhyy0wbdhhhhhhbdtww1ykhdddkdkds01ydhhhhytj"
};
